<svg width="90" height="90" viewBox="0 0 90 90" fill="none" xmlns="http://www.w3.org/2000/svg">
<g clip-path="url(#clip0_2_15)">
<path d="M45.0108 89.0108C69.3113 89.0108 89.0108 69.3113 89.0108 45.0108C89.0108 20.7103 69.3113 1.01079 45.0108 1.01079C20.7103 1.01079 1.0108 20.7103 1.0108 45.0108C1.0108 69.3113 20.7103 89.0108 45.0108 89.0108Z" fill="#F7A8B8"/>
<path fill-rule="evenodd" clip-rule="evenodd" d="M44.999 3.67872e-05C55.41 -0.000197106 65.499 3.60947 73.547 10.214C81.5949 16.8185 87.1039 26.0093 89.1351 36.2202C91.1664 46.4312 89.5943 57.0305 84.6867 66.2123C79.7791 75.3941 71.8397 82.5901 62.2212 86.5744C52.6027 90.5586 41.9003 91.0845 31.9376 88.0624C21.9748 85.0403 13.3682 78.6573 7.58407 70.0009C1.79997 61.3445 -0.803684 50.9503 0.216745 40.5894C1.23717 30.2285 5.81855 20.5419 13.1802 13.1802C17.3541 8.99546 22.3138 5.67677 27.7743 3.41487C33.2349 1.15298 39.0885 -0.00753225 44.999 3.67872e-05V3.67872e-05ZM75.3887 14.6092C68.3578 7.57829 59.1066 3.20273 49.2114 2.22808C39.3161 1.25343 29.389 3.73998 21.1216 9.26406C12.8541 14.7881 6.75784 23.008 3.87145 32.523C0.985071 42.038 1.48718 52.2594 5.29222 61.4457C9.09727 70.632 15.9698 78.2148 24.7389 82.902C33.5079 87.5892 43.6309 89.0908 53.383 87.151C63.1351 85.2112 71.9129 79.95 78.2208 72.2639C84.5287 64.5777 87.9764 54.9422 87.9764 44.999C87.9837 39.354 86.8754 33.7633 84.7151 28.548C82.5549 23.3327 79.3854 18.5957 75.3887 14.6092V14.6092Z" fill="#231F20"/>
</g>
<defs>
<clipPath id="clip0_2_15">
<rect width="90" height="90" fill="white"/>
</clipPath>
</defs>
</svg>
