<svg width="90" height="90" viewBox="0 0 90 90" fill="none" xmlns="http://www.w3.org/2000/svg">
<path fill-rule="evenodd" clip-rule="evenodd" d="M25.4926 56.5415C26.0147 56.5415 26.5252 56.6963 26.9593 56.9864C27.3935 57.2765 27.7318 57.6888 27.9316 58.1712C28.1315 58.6536 28.1837 59.1844 28.0819 59.6965C27.98 60.2087 27.7286 60.6791 27.3594 61.0483C26.9902 61.4175 26.5197 61.6689 26.0076 61.7708C25.4955 61.8726 24.9647 61.8204 24.4823 61.6205C23.9999 61.4207 23.5876 61.0824 23.2975 60.6482C23.0074 60.2141 22.8526 59.7036 22.8526 59.1815C22.8526 58.4813 23.1307 57.8098 23.6258 57.3147C24.1209 56.8196 24.7924 56.5415 25.4926 56.5415V56.5415Z" fill="#FFD53A"/>
<path fill-rule="evenodd" clip-rule="evenodd" d="M25.4926 55.5415C25.9705 55.5416 26.4436 55.636 26.8849 55.8193C27.3262 56.0027 27.727 56.2714 28.0642 56.61L28.0661 56.608C28.4132 56.9439 28.6899 57.3456 28.8802 57.7895C29.0705 58.2335 29.1705 58.7109 29.1745 59.1939C29.1784 59.6769 29.0862 60.1558 28.9032 60.6028C28.7202 61.0498 28.45 61.4559 28.1085 61.7975C27.7669 62.139 27.3608 62.4091 26.9138 62.5922C26.4668 62.7752 25.9878 62.8674 25.5048 62.8634C25.0218 62.8595 24.5444 62.7594 24.1005 62.5691C23.6566 62.3788 23.2549 62.1021 22.919 61.755C22.899 61.735 22.879 61.7134 22.8612 61.6918C22.2041 61.0059 21.8421 60.0898 21.8529 59.14C21.8637 58.1902 22.2465 57.2825 22.919 56.6118L22.921 56.6101L22.9227 56.6081L22.9241 56.6067C23.2612 56.269 23.6616 56.0012 24.1023 55.8184C24.543 55.6357 25.0155 55.5416 25.4926 55.5417V55.5415ZM26.6526 58.0181C26.3438 57.7128 25.9272 57.5416 25.493 57.5416C25.0588 57.5416 24.6421 57.7128 24.3333 58.0181L24.3296 58.0218C24.0309 58.3241 23.8604 58.73 23.8535 59.1549C23.8466 59.5798 24.004 59.991 24.2928 60.3028L24.3328 60.3411C24.6407 60.6472 25.0573 60.8186 25.4914 60.818C25.9256 60.8174 26.3417 60.6446 26.6487 60.3377C26.9556 60.0307 27.1284 59.6146 27.129 59.1804C27.1296 58.7463 26.9582 58.3297 26.6521 58.0218L26.6541 58.0198L26.6526 58.0181Z" fill="#231F20"/>
<path fill-rule="evenodd" clip-rule="evenodd" d="M63.5553 56.5415C64.0774 56.5415 64.5878 56.6963 65.022 56.9864C65.4561 57.2765 65.7945 57.6888 65.9943 58.1712C66.1941 58.6536 66.2464 59.1844 66.1446 59.6965C66.0427 60.2087 65.7913 60.6791 65.422 61.0483C65.0528 61.4175 64.5824 61.6689 64.0703 61.7708C63.5582 61.8726 63.0274 61.8204 62.545 61.6205C62.0626 61.4207 61.6503 61.0824 61.3602 60.6482C61.0701 60.2141 60.9153 59.7036 60.9153 59.1815C60.9153 58.4813 61.1934 57.8098 61.6885 57.3147C62.1836 56.8196 62.8551 56.5415 63.5553 56.5415V56.5415Z" fill="#FFD53A"/>
<path fill-rule="evenodd" clip-rule="evenodd" d="M63.5553 55.5415C64.0328 55.5414 64.5056 55.6355 64.9466 55.8185C65.3876 56.0015 65.7882 56.2698 66.1253 56.6079L66.127 56.6099L66.129 56.6116L66.1304 56.613C66.4683 56.9504 66.7363 57.3511 66.919 57.7922C67.1018 58.2334 67.1957 58.7062 67.1954 59.1837C67.1951 59.6612 67.1005 60.1339 66.9172 60.5748C66.7339 61.0157 66.4653 61.4161 66.127 61.753L66.129 61.755C65.793 62.1017 65.3914 62.3782 64.9475 62.5682C64.5036 62.7582 64.0264 62.858 63.5436 62.8618C63.0608 62.8656 62.582 62.7733 62.1352 62.5903C61.6884 62.4073 61.2825 62.1372 60.9411 61.7958C60.5997 61.4544 60.3296 61.0485 60.1466 60.6017C59.9635 60.1549 59.8713 59.6761 59.8751 59.1933C59.8789 58.7105 59.9787 58.2333 60.1687 57.7894C60.3587 57.3455 60.6351 56.9439 60.9819 56.6079C61.0019 56.5879 61.0235 56.5679 61.0451 56.5501C61.7204 55.9028 62.6197 55.5415 63.5551 55.5415H63.5553ZM64.7153 58.0181C64.413 57.7194 64.0071 57.5489 63.5822 57.542C63.1572 57.5351 62.7461 57.6925 62.4343 57.9813L62.396 58.0218C62.0899 58.3297 61.9184 58.7463 61.9191 59.1804C61.9197 59.6146 62.0925 60.0307 62.3994 60.3377C62.7064 60.6446 63.1225 60.8174 63.5567 60.818C63.9908 60.8186 64.4074 60.6472 64.7153 60.3411L64.7173 60.3431L64.719 60.3411C65.0243 60.0323 65.1955 59.6157 65.1955 59.1815C65.1955 58.7473 65.0243 58.3306 64.719 58.0218L64.7153 58.0181Z" fill="#231F20"/>
</svg>
