<svg width="90" height="90" viewBox="0 0 90 90" fill="none" xmlns="http://www.w3.org/2000/svg">
<path fill-rule="evenodd" clip-rule="evenodd" d="M26.1113 57.0059C26.5342 57.0059 26.9476 57.1313 27.2992 57.3663C27.6508 57.6012 27.9249 57.9352 28.0867 58.3259C28.2486 58.7166 28.2909 59.1465 28.2084 59.5613C28.1259 59.9761 27.9222 60.3571 27.6232 60.6561C27.3241 60.9551 26.9431 61.1588 26.5284 61.2412C26.1136 61.3237 25.6837 61.2814 25.293 61.1195C24.9023 60.9577 24.5683 60.6836 24.3334 60.332C24.0984 59.9803 23.9731 59.5669 23.9731 59.144C23.9732 58.577 24.1985 58.0332 24.5995 57.6322C25.0004 57.2313 25.5442 57.006 26.1113 57.0059V57.0059Z" fill="white"/>
<path fill-rule="evenodd" clip-rule="evenodd" d="M26.1113 56.0058C26.5233 56.0059 26.9311 56.0874 27.3115 56.2455C27.6919 56.4036 28.0374 56.6353 28.328 56.9273L28.33 56.9254C28.6231 57.2164 28.8558 57.5624 29.0148 57.9435C29.1739 58.3246 29.2561 58.7334 29.2569 59.1464C29.2576 59.5594 29.1768 59.9684 29.0191 60.3501C28.8614 60.7318 28.6299 61.0786 28.3378 61.3706C28.0458 61.6627 27.699 61.8941 27.3173 62.0518C26.9356 62.2095 26.5266 62.2903 26.1136 62.2896C25.7006 62.2889 25.2918 62.2066 24.9107 62.0476C24.5296 61.8885 24.1836 61.6558 23.8926 61.3627C23.8711 61.3412 23.851 61.3191 23.8317 61.2961C23.27 60.7041 22.962 59.9161 22.9734 59.1002C22.9848 58.2842 23.3146 57.5051 23.8926 56.929L23.8946 56.9273L23.8963 56.9254L23.8983 56.9234C24.1887 56.6325 24.5337 56.4017 24.9134 56.2442C25.2932 56.0868 25.7002 56.0057 26.1113 56.0058V56.0058ZM26.9161 58.3358C26.7015 58.1244 26.4124 58.0059 26.1111 58.0059C25.8099 58.0059 25.5207 58.1244 25.3061 58.3358L25.3024 58.3395C25.0971 58.548 24.9793 58.8271 24.973 59.1197C24.9666 59.4122 25.0723 59.6961 25.2684 59.9133L25.3061 59.949C25.5195 60.1625 25.809 60.2825 26.1109 60.2825C26.4128 60.2826 26.7024 60.1627 26.9159 59.9492C27.1294 59.7358 27.2493 59.4463 27.2494 59.1444C27.2494 58.8425 27.1295 58.553 26.9161 58.3395L26.9181 58.3375L26.9161 58.3358Z" fill="#231F20"/>
<path fill-rule="evenodd" clip-rule="evenodd" d="M62.6553 57.0059C63.0782 57.0059 63.4916 57.1313 63.8432 57.3663C64.1949 57.6012 64.4689 57.9352 64.6308 58.3259C64.7926 58.7166 64.8349 59.1465 64.7524 59.5613C64.6699 59.9761 64.4662 60.3571 64.1672 60.6561C63.8682 60.9551 63.4872 61.1588 63.0724 61.2412C62.6576 61.3237 62.2277 61.2814 61.837 61.1195C61.4463 60.9577 61.1123 60.6836 60.8774 60.332C60.6425 59.9803 60.5171 59.5669 60.5171 59.144C60.5172 58.577 60.7425 58.0332 61.1435 57.6322C61.5445 57.2313 62.0883 57.006 62.6553 57.0059Z" fill="white"/>
<path fill-rule="evenodd" clip-rule="evenodd" d="M62.6553 56.0058C63.0673 56.0059 63.4751 56.0874 63.8555 56.2455C64.2359 56.4036 64.5814 56.6353 64.872 56.9273L64.874 56.9254C65.1671 57.2164 65.3998 57.5624 65.5588 57.9435C65.7179 58.3246 65.8001 58.7334 65.8009 59.1464C65.8016 59.5594 65.7208 59.9684 65.5631 60.3501C65.4054 60.7318 65.1739 61.0786 64.8818 61.3706C64.5898 61.6627 64.243 61.8941 63.8613 62.0518C63.4796 62.2095 63.0705 62.2903 62.6576 62.2896C62.2446 62.2889 61.8358 62.2066 61.4547 62.0476C61.0736 61.8885 60.7276 61.6558 60.4366 61.3627C60.4151 61.3412 60.3949 61.3191 60.3757 61.2961C59.814 60.7042 59.5059 59.9161 59.5173 59.1002C59.5287 58.2842 59.8586 57.505 60.4366 56.929L60.4386 56.9273L60.4403 56.9254L60.4423 56.9234C60.7327 56.6325 61.0777 56.4017 61.4574 56.2442C61.8371 56.0868 62.2442 56.0057 62.6553 56.0058ZM63.46 58.3358C63.2454 58.1244 62.9562 58.0059 62.655 58.0059C62.3537 58.0059 62.0646 58.1244 61.85 58.3358L61.8463 58.3395C61.6411 58.5481 61.5233 58.8271 61.517 59.1197C61.5106 59.4122 61.6163 59.6961 61.8123 59.9133L61.85 59.949C62.0634 60.1625 62.3529 60.2825 62.6548 60.2825C62.9567 60.2826 63.2462 60.1627 63.4597 59.9492C63.6732 59.7358 63.7932 59.4463 63.7933 59.1444C63.7933 58.8425 63.6734 58.553 63.46 58.3395L63.462 58.3375L63.46 58.3358Z" fill="#231F20"/>
<path d="M26.1113 66.983C27.6186 66.983 28.8405 65.7611 28.8405 64.2538C28.8405 62.7465 27.6186 61.5246 26.1113 61.5246C24.604 61.5246 23.3821 62.7465 23.3821 64.2538C23.3821 65.7611 24.604 66.983 26.1113 66.983Z" fill="white"/>
<path fill-rule="evenodd" clip-rule="evenodd" d="M26.1113 60.5245C26.6005 60.5243 27.0849 60.6207 27.5368 60.8082C27.9886 60.9956 28.399 61.2705 28.7444 61.617L28.7461 61.619L28.7481 61.617C29.0944 61.9629 29.3692 62.3736 29.5567 62.8257C29.7441 63.2779 29.8406 63.7625 29.8406 64.252C29.8406 64.7415 29.7441 65.2261 29.5567 65.6783C29.3692 66.1304 29.0944 66.5411 28.7481 66.887L28.7444 66.8906C28.3985 67.237 27.9878 67.5117 27.5356 67.6992C27.0835 67.8867 26.5988 67.9832 26.1094 67.9832C25.6199 67.9832 25.1353 67.8867 24.6831 67.6992C24.231 67.5117 23.8202 67.237 23.4744 66.8906C23.454 66.8702 23.4345 66.8491 23.416 66.8272C22.9116 66.2994 22.5733 65.6351 22.4431 64.9168C22.3129 64.1984 22.3965 63.4577 22.6836 62.7864C22.9706 62.1152 23.4485 61.543 24.0578 61.1409C24.6671 60.7388 25.3811 60.5245 26.1112 60.5246L26.1113 60.5245ZM27.3359 63.0292C27.0142 62.7088 26.5796 62.5276 26.1256 62.5244C25.6716 62.5213 25.2346 62.6966 24.9086 63.0126C24.5825 63.3285 24.3936 63.7598 24.3825 64.2137C24.3713 64.6676 24.5389 65.1076 24.849 65.4392L24.8884 65.4766C25.049 65.6372 25.2396 65.7646 25.4494 65.8515C25.6593 65.9384 25.8841 65.9832 26.1112 65.9832C26.3384 65.9832 26.5632 65.9384 26.7731 65.8515C26.9829 65.7646 27.1735 65.6372 27.3341 65.4767C27.4947 65.3161 27.6221 65.1254 27.709 64.9156C27.7959 64.7058 27.8407 64.4809 27.8407 64.2538C27.8407 64.0267 27.796 63.8018 27.7091 63.592C27.6222 63.3821 27.4948 63.1915 27.3342 63.0309L27.3359 63.0292Z" fill="#231F20"/>
<path d="M62.6553 66.983C64.1626 66.983 65.3845 65.7611 65.3845 64.2538C65.3845 62.7465 64.1626 61.5246 62.6553 61.5246C61.148 61.5246 59.9261 62.7465 59.9261 64.2538C59.9261 65.7611 61.148 66.983 62.6553 66.983Z" fill="white"/>
<path fill-rule="evenodd" clip-rule="evenodd" d="M62.6553 60.5245C63.1445 60.5243 63.6289 60.6207 64.0808 60.8082C64.5327 60.9956 64.943 61.2705 65.2884 61.617L65.2901 61.619L65.2921 61.617C65.6384 61.9629 65.9132 62.3736 66.1006 62.8258C66.2881 63.2779 66.3846 63.7625 66.3846 64.252C66.3846 64.7415 66.2881 65.2261 66.1006 65.6782C65.9132 66.1304 65.6384 66.5411 65.2921 66.887L65.2884 66.8906C64.9425 67.237 64.5318 67.5117 64.0797 67.6992C63.6275 67.8867 63.1429 67.9832 62.6534 67.9832C62.1639 67.9832 61.6793 67.8867 61.2271 67.6992C60.775 67.5117 60.3643 67.237 60.0184 66.8906C59.9984 66.8706 59.9784 66.849 59.96 66.8272C59.4556 66.2994 59.1173 65.6351 58.9871 64.9168C58.8569 64.1984 58.9406 63.4577 59.2276 62.7864C59.5146 62.1152 59.9925 61.543 60.6018 61.1409C61.2112 60.7388 61.9252 60.5245 62.6552 60.5246L62.6553 60.5245ZM63.88 63.0292C63.5582 62.7094 63.1238 62.5287 62.6701 62.5258C62.2165 62.523 61.7799 62.6983 61.4541 63.014C61.1283 63.3297 60.9394 63.7606 60.928 64.2142C60.9167 64.6677 61.0837 65.1075 61.3932 65.4392L61.4326 65.4766C61.7576 65.7978 62.1965 65.9774 62.6534 65.9761C63.1103 65.9747 63.5481 65.7926 63.8712 65.4695C64.1943 65.1464 64.3765 64.7086 64.3778 64.2517C64.3791 63.7948 64.1995 63.3559 63.8783 63.0309L63.88 63.0292Z" fill="#231F20"/>
</svg>
