<svg width="90" height="90" viewBox="0 0 90 90" fill="none" xmlns="http://www.w3.org/2000/svg">
<path fill-rule="evenodd" clip-rule="evenodd" d="M63.5325 58.0841C63.5892 57.9823 63.645 57.8799 63.7 57.777C65.2424 54.8913 66.0693 51.7015 66.1415 48.4721C66.5895 48.6133 67.0177 48.8178 67.4124 49.0816C68.232 49.6292 68.8708 50.4076 69.2481 51.3183C69.6253 52.229 69.724 53.2311 69.5317 54.1979C69.3394 55.1647 68.8647 56.0527 68.1677 56.7497C67.4707 57.4468 66.5826 57.9214 65.6158 58.1137C64.924 58.2513 64.2141 58.2399 63.5325 58.0841Z" fill="#F9DDD1"/>
<path fill-rule="evenodd" clip-rule="evenodd" d="M62.9977 58.9903C64.2981 59.3617 65.6869 59.2827 66.9381 58.7644C68.2195 58.2336 69.2772 57.2749 69.931 56.0517C70.5847 54.8285 70.7942 53.4164 70.5235 52.0561C70.2529 50.6958 69.5189 49.4714 68.4468 48.5916C67.7671 48.0338 66.9781 47.6364 66.1383 47.4202C66.1583 48.1231 66.1424 48.8256 66.0911 49.5247C66.5982 49.7232 67.0628 50.0252 67.4533 50.4159H67.4531C67.8226 50.7845 68.1156 51.2224 68.3153 51.7046C68.515 52.1868 68.6174 52.7037 68.6168 53.2256C68.6168 54.1451 68.2979 55.0361 67.7146 55.7469C67.1312 56.4576 66.3195 56.9441 65.4177 57.1235C64.954 57.2157 64.4812 57.2237 64.0211 57.1509C63.9178 57.3611 63.8107 57.5698 63.7 57.777C63.479 58.1903 63.2447 58.595 62.9977 58.9903Z" fill="#231F20"/>
<path fill-rule="evenodd" clip-rule="evenodd" d="M24.711 48.4719C24.7861 51.836 25.6799 55.1366 27.3199 58.084C27.2737 58.0945 27.2274 58.1045 27.1808 58.1137C26.214 58.306 25.2119 58.2073 24.3012 57.8301C23.3905 57.4529 22.6121 56.8141 22.0645 55.9945C21.5169 55.1749 21.2245 54.2113 21.2245 53.2256C21.2245 52.5711 21.3534 51.923 21.6039 51.3183C21.8543 50.7136 22.2214 50.1642 22.6842 49.7014C23.147 49.2386 23.6964 48.8715 24.3011 48.621C24.4357 48.5653 24.5725 48.5155 24.711 48.4719Z" fill="#F9DDD1"/>
<path fill-rule="evenodd" clip-rule="evenodd" d="M24.7143 47.4189C24.4422 47.4888 24.1747 47.578 23.9139 47.686C23.1865 47.9873 22.5258 48.4294 21.9698 48.9868C20.989 49.9676 20.3786 51.2581 20.2427 52.6384C20.1067 54.0188 20.4536 55.4036 21.2242 56.5568C21.9948 57.7101 23.1415 58.5605 24.4688 58.9631C25.576 59.2989 26.7518 59.3058 27.8551 58.9907C27.4816 58.3931 27.1401 57.7789 26.8313 57.1506C25.9765 57.2866 25.099 57.1399 24.3332 56.7305C23.5223 56.2969 22.8868 55.5956 22.535 54.746C22.1832 53.8964 22.1369 52.9511 22.404 52.0712C22.6711 51.1913 23.235 50.4312 23.9996 49.9205C24.24 49.76 24.4955 49.6272 24.7612 49.5234C24.7101 48.8251 24.6942 48.1227 24.7143 47.4189Z" fill="#231F20"/>
</svg>
