<svg width="90" height="90" viewBox="0 0 90 90" fill="none" xmlns="http://www.w3.org/2000/svg">
<path fill-rule="evenodd" clip-rule="evenodd" d="M52.8676 48.5342C53.61 48.5342 54.3358 48.7543 54.9531 49.1668C55.5704 49.5792 56.0515 50.1655 56.3357 50.8513C56.6198 51.5372 56.6941 52.292 56.5493 53.0201C56.4045 53.7483 56.047 54.4172 55.522 54.9421C54.9971 55.4671 54.3282 55.8246 53.6001 55.9695C52.8719 56.1143 52.1172 56.04 51.4313 55.7559C50.7454 55.4718 50.1591 54.9906 49.7466 54.3734C49.3342 53.7561 49.114 53.0303 49.114 52.2879C49.114 51.2924 49.5095 50.3376 50.2134 49.6337C50.9174 48.9297 51.8721 48.5342 52.8676 48.5342V48.5342Z" fill="white"/>
<path fill-rule="evenodd" clip-rule="evenodd" d="M52.8676 47.5342C53.4913 47.534 54.109 47.6569 54.6851 47.8959C55.2612 48.1349 55.7845 48.4852 56.225 48.9268L56.2267 48.9288L56.2286 48.9305L56.2298 48.9316C56.671 49.3722 57.021 49.8955 57.2598 50.4716C57.4986 51.0476 57.6214 51.6651 57.6213 52.2886C57.6212 52.9122 57.4981 53.5296 57.2591 54.1056C57.0202 54.6815 56.67 55.2047 56.2286 55.6452L56.2267 55.6469L56.225 55.6489L56.2238 55.65C55.7832 56.0912 55.2599 56.4413 54.6838 56.68C54.1078 56.9188 53.4903 57.0417 52.8668 57.0416C52.2432 57.0415 51.6258 56.9184 51.0498 56.6795C50.4739 56.4405 49.9507 56.0903 49.5102 55.6489L49.5085 55.6469L49.5066 55.6452L49.5054 55.6441C49.0642 55.2035 48.7142 54.6802 48.4754 54.1041C48.2366 53.5281 48.1138 52.9106 48.1139 52.287C48.114 51.6635 48.2371 51.0461 48.476 50.4701C48.715 49.8941 49.0652 49.371 49.5066 48.9305L49.5085 48.9288L49.5102 48.9268L49.5114 48.9257C49.9518 48.4844 50.4749 48.1343 51.0509 47.8956C51.6268 47.6568 52.2441 47.534 52.8676 47.5342V47.5342ZM54.8147 50.3371C54.2971 49.8229 53.5972 49.5343 52.8676 49.5343C52.138 49.5343 51.4381 49.8229 50.9205 50.3371L50.9168 50.3408C50.4026 50.8584 50.114 51.5583 50.114 52.2879C50.114 53.0175 50.4026 53.7174 50.9168 54.235L50.9205 54.2387C51.4381 54.7528 52.138 55.0414 52.8676 55.0414C53.5972 55.0414 54.2971 54.7528 54.8147 54.2387L54.8184 54.235C55.3326 53.7174 55.6212 53.0175 55.6212 52.2879C55.6212 51.5583 55.3326 50.8584 54.8184 50.3408L54.8147 50.3371Z" fill="#231F20"/>
<path fill-rule="evenodd" clip-rule="evenodd" d="M40.7427 52.9072C40.6439 52.9941 40.5288 53.0605 40.4042 53.1027C40.2795 53.1449 40.1478 53.162 40.0165 53.1531C39.8852 53.1441 39.757 53.1092 39.6392 53.0505C39.5215 52.9917 39.4165 52.9102 39.3304 52.8107C39.2443 52.7111 39.1788 52.5956 39.1376 52.4706C39.0964 52.3456 39.0803 52.2137 39.0904 52.0825C39.1004 51.9513 39.1363 51.8233 39.196 51.7061C39.2557 51.5888 39.338 51.4845 39.4382 51.3992C40.8143 50.0855 42.6301 49.3309 44.532 49.2823C46.4137 49.3674 48.2056 50.1112 49.5944 51.3836C49.6955 51.4672 49.7791 51.5699 49.8405 51.6858C49.9018 51.8017 49.9398 51.9286 49.9521 52.0592C49.9645 52.1898 49.951 52.3215 49.9124 52.4469C49.8739 52.5722 49.811 52.6888 49.7274 52.7899C49.6438 52.8909 49.5411 52.9745 49.4251 53.0359C49.3092 53.0973 49.1824 53.1352 49.0518 53.1476C48.9212 53.1599 48.7895 53.1464 48.6641 53.1079C48.5387 53.0693 48.4222 53.0064 48.3211 52.9228C47.2824 51.9486 45.9373 51.3659 44.5162 51.2745C43.1003 51.3356 41.7567 51.917 40.7427 52.9072V52.9072Z" fill="#231F20"/>
<path fill-rule="evenodd" clip-rule="evenodd" d="M33.0835 50.3637C33.3067 50.5027 33.466 50.7243 33.5267 50.9802C33.5874 51.2361 33.5446 51.5056 33.4077 51.7301C33.2707 51.9546 33.0506 52.1159 32.7953 52.179C32.5399 52.242 32.2701 52.2017 32.0443 52.0668L23.8879 47.0954C23.7748 47.0278 23.6762 46.9385 23.5978 46.8325C23.5194 46.7266 23.4628 46.6062 23.4312 46.4783C23.3996 46.3503 23.3936 46.2174 23.4137 46.0872C23.4338 45.9569 23.4794 45.8319 23.5481 45.7194C23.6167 45.607 23.707 45.5092 23.8136 45.4318C23.9203 45.3544 24.0412 45.2988 24.1694 45.2684C24.2976 45.238 24.4306 45.2333 24.5606 45.2545C24.6907 45.2758 24.8152 45.3226 24.9271 45.3923L33.0835 50.3637Z" fill="#231F20"/>
<path fill-rule="evenodd" clip-rule="evenodd" d="M57.2709 52.0668C57.1591 52.135 57.0349 52.1806 56.9055 52.2008C56.7761 52.221 56.6439 52.2156 56.5166 52.1848C56.3893 52.1539 56.2693 52.0983 56.1634 52.0211C56.0576 51.9439 55.968 51.8466 55.8998 51.7348C55.8316 51.623 55.786 51.4988 55.7658 51.3694C55.7456 51.24 55.751 51.1078 55.7818 50.9805C55.8127 50.8532 55.8683 50.7332 55.9455 50.6273C56.0227 50.5215 56.12 50.4319 56.2318 50.3637L64.3882 45.3923C64.5 45.3241 64.6242 45.2785 64.7536 45.2583C64.883 45.2381 65.0152 45.2435 65.1425 45.2743C65.2698 45.3052 65.3898 45.3608 65.4957 45.438C65.6015 45.5152 65.6911 45.6125 65.7593 45.7243C65.8275 45.8361 65.8731 45.9603 65.8933 46.0897C65.9135 46.2192 65.9081 46.3513 65.8773 46.4786C65.8464 46.6059 65.7908 46.7259 65.7136 46.8318C65.6364 46.9376 65.5391 47.0272 65.4273 47.0954L57.2709 52.0668Z" fill="#231F20"/>
<path fill-rule="evenodd" clip-rule="evenodd" d="M36.18 48.5342C36.9224 48.5342 37.6482 48.7543 38.2655 49.1668C38.8828 49.5792 39.3639 50.1655 39.648 50.8513C39.9322 51.5372 40.0065 52.292 39.8617 53.0201C39.7169 53.7483 39.3594 54.4172 38.8344 54.9421C38.3094 55.4671 37.6406 55.8246 36.9124 55.9695C36.1843 56.1143 35.4295 56.04 34.7436 55.7559C34.0577 55.4718 33.4715 54.9906 33.059 54.3734C32.6465 53.7561 32.4264 53.0303 32.4264 52.2879C32.4264 51.2924 32.8219 50.3376 33.5258 49.6337C34.2297 48.9297 35.1845 48.5342 36.18 48.5342V48.5342Z" fill="white"/>
<path fill-rule="evenodd" clip-rule="evenodd" d="M36.18 47.5342C36.8037 47.534 37.4213 47.657 37.9975 47.8959C38.5736 48.1349 39.0969 48.4852 39.5374 48.9268L39.5391 48.9288L39.5411 48.9305L39.5422 48.9316C39.9834 49.3722 40.3334 49.8955 40.5722 50.4716C40.811 51.0476 40.9338 51.6651 40.9337 52.2886C40.9336 52.9122 40.8106 53.5296 40.5716 54.1056C40.3326 54.6815 39.9825 55.2047 39.5411 55.6452L39.5391 55.6469L39.5374 55.6489L39.5362 55.65C39.0956 56.0912 38.5723 56.4413 37.9963 56.68C37.4202 56.9188 36.8028 57.0417 36.1792 57.0416C35.5557 57.0415 34.9382 56.9184 34.3623 56.6795C33.7863 56.4405 33.2632 56.0903 32.8227 55.6489L32.821 55.6469L32.819 55.6452L32.8178 55.6441C32.3766 55.2035 32.0266 54.6802 31.7878 54.1041C31.549 53.5281 31.4262 52.9106 31.4263 52.287C31.4264 51.6635 31.5495 51.0461 31.7885 50.4701C32.0274 49.8942 32.3776 49.371 32.819 48.9305L32.821 48.9288L32.8227 48.9268L32.8238 48.9257C33.2642 48.4844 33.7873 48.1343 34.3632 47.8955C34.9392 47.6567 35.5565 47.5339 36.18 47.5342V47.5342ZM38.1271 50.3371C37.6095 49.8229 36.9096 49.5343 36.18 49.5343C35.4504 49.5343 34.7505 49.8229 34.2329 50.3371L34.2292 50.3408C33.715 50.8584 33.4264 51.5583 33.4264 52.2879C33.4264 53.0175 33.715 53.7174 34.2292 54.235L34.2329 54.2387C34.7505 54.7528 35.4504 55.0414 36.18 55.0414C36.9096 55.0414 37.6095 54.7528 38.1271 54.2387L38.1308 54.235C38.645 53.7174 38.9336 53.0175 38.9336 52.2879C38.9336 51.5583 38.645 50.8584 38.1308 50.3408L38.1271 50.3371Z" fill="#231F20"/>
</svg>
