<svg width="90" height="90" viewBox="0 0 90 90" fill="none" xmlns="http://www.w3.org/2000/svg">
<path fill-rule="evenodd" clip-rule="evenodd" d="M33.3022 50.6752C33.5304 50.8145 33.694 51.0387 33.7569 51.2986C33.8198 51.5585 33.7769 51.8327 33.6376 52.061C33.4983 52.2892 33.2741 52.4528 33.0142 52.5157C32.7543 52.5786 32.4801 52.5357 32.2519 52.3964L24.0083 47.3719C23.8953 47.3029 23.797 47.2124 23.7189 47.1054C23.6409 46.9984 23.5847 46.8772 23.5536 46.7485C23.5224 46.6198 23.5169 46.4862 23.5374 46.3554C23.5579 46.2246 23.6039 46.0991 23.6728 45.9861C23.7418 45.8731 23.8324 45.7748 23.9393 45.6968C24.0463 45.6187 24.1676 45.5626 24.2962 45.5314C24.4249 45.5003 24.5585 45.4948 24.6893 45.5152C24.8201 45.5357 24.9456 45.5817 25.0586 45.6507L33.3022 50.6752Z" fill="#231F20"/>
<path fill-rule="evenodd" clip-rule="evenodd" d="M57.7481 52.3964C57.5199 52.5357 57.2456 52.5786 56.9858 52.5157C56.7259 52.4528 56.5016 52.2892 56.3624 52.061C56.2231 51.8327 56.1802 51.5585 56.2431 51.2986C56.306 51.0387 56.4696 50.8145 56.6978 50.6752L64.9414 45.6507C65.1696 45.5114 65.4439 45.4685 65.7037 45.5314C65.9636 45.5943 66.1879 45.7579 66.3271 45.9861C66.4664 46.2144 66.5093 46.4886 66.4464 46.7485C66.3835 47.0084 66.2199 47.2326 65.9917 47.3719L57.7481 52.3964Z" fill="#231F20"/>
<path fill-rule="evenodd" clip-rule="evenodd" d="M47.1773 50.3282C50.462 48.1542 54.3422 47.057 58.2789 47.189C60.2182 47.2927 60.9814 48.2503 60.7362 50.6834C60.3757 53.0365 59.3076 55.2242 57.6738 56.9556C56.4529 58.1039 54.8709 58.7924 53.1985 58.9033C51.5261 59.0143 49.8671 58.5408 48.5052 57.5639C47.4898 56.714 46.6761 55.6489 46.123 54.4458C45.9871 54.2792 45.8158 54.1449 45.6215 54.0526C45.4273 53.9604 45.215 53.9126 44.9999 53.9126C44.7849 53.9126 44.5726 53.9604 44.3783 54.0526C44.1841 54.1449 44.0128 54.2792 43.8769 54.4458C43.324 55.649 42.5105 56.7142 41.4952 57.5643C40.1332 58.5412 38.4742 59.0147 36.8017 58.9037C35.1293 58.7928 33.5473 58.1043 32.3263 56.956C30.6926 55.2245 29.6245 53.0369 29.2639 50.6838C29.0186 48.2503 29.7818 47.2931 31.7212 47.1895C35.6577 47.0574 39.5377 48.1544 42.8223 50.3282C45.0128 51.7877 45.1646 51.669 47.1773 50.3282Z" fill="#231F20"/>
</svg>
