<svg width="90" height="90" viewBox="0 0 90 90" fill="none" xmlns="http://www.w3.org/2000/svg">
<path fill-rule="evenodd" clip-rule="evenodd" d="M40.6091 55.292C40.4088 55.4625 40.1492 55.5469 39.8869 55.5269C39.6247 55.5069 39.3809 55.384 39.2088 55.1851C39.0367 54.9861 38.9502 54.7273 38.9682 54.4648C38.9861 54.2024 39.107 53.9577 39.3046 53.784C40.6809 52.4704 42.4966 51.7158 44.3985 51.6671C46.2802 51.7522 48.072 52.496 49.4609 53.7684C49.665 53.9372 49.7937 54.1803 49.8186 54.444C49.8436 54.7077 49.7627 54.9705 49.5939 55.1746C49.425 55.3788 49.182 55.5074 48.9183 55.5324C48.6545 55.5573 48.3917 55.4764 48.1876 55.3076C47.1489 54.3334 45.8037 53.7507 44.3826 53.6593C42.9667 53.7205 41.6231 54.3019 40.6091 55.292Z" fill="#231F20"/>
<path fill-rule="evenodd" clip-rule="evenodd" d="M32.95 51.1135C33.0618 51.1817 33.1591 51.2713 33.2363 51.3772C33.3135 51.483 33.3691 51.603 33.3999 51.7303C33.4307 51.8576 33.4362 51.9898 33.4159 52.1192C33.3957 52.2486 33.3501 52.3728 33.2819 52.4846C33.2137 52.5964 33.1241 52.6937 33.0182 52.7709C32.9124 52.8481 32.7924 52.9037 32.6651 52.9345C32.5378 52.9653 32.4056 52.9708 32.2762 52.9505C32.1468 52.9303 32.0226 52.8847 31.9108 52.8165L23.7544 47.8451C23.5286 47.7073 23.3667 47.4854 23.3045 47.2283C23.2422 46.9712 23.2847 46.6998 23.4225 46.474C23.5603 46.2482 23.7822 46.0863 24.0393 46.0241C24.2964 45.9618 24.5678 46.0043 24.7936 46.1421L32.95 51.1135Z" fill="#231F20"/>
<path fill-rule="evenodd" clip-rule="evenodd" d="M57.1374 52.8165C57.0256 52.8847 56.9014 52.9303 56.772 52.9505C56.6426 52.9708 56.5104 52.9653 56.3831 52.9345C56.2558 52.9037 56.1358 52.8481 56.03 52.7709C55.9241 52.6937 55.8346 52.5964 55.7663 52.4846C55.6981 52.3728 55.6525 52.2486 55.6323 52.1192C55.612 51.9898 55.6175 51.8576 55.6483 51.7303C55.6791 51.603 55.7347 51.483 55.8119 51.3772C55.8891 51.2713 55.9864 51.1817 56.0982 51.1135L64.2546 46.1421C64.4804 46.0043 64.7518 45.9618 65.0089 46.0241C65.266 46.0863 65.4879 46.2482 65.6257 46.474C65.7635 46.6998 65.806 46.9712 65.7437 47.2283C65.6815 47.4854 65.5196 47.7073 65.2938 47.8451L57.1374 52.8165Z" fill="#231F20"/>
<path fill-rule="evenodd" clip-rule="evenodd" d="M42.48 53.1661C42.6546 52.6086 42.6896 52.0167 42.5819 51.4425C42.4742 50.8683 42.2271 50.3293 41.8623 49.873C40.1349 48.0192 31.2276 47.4012 30.1238 51.5418C29.9014 52.3496 29.8945 53.2016 30.1038 54.0129C30.3131 54.8242 30.7312 55.5665 31.3166 56.166C33.3009 58.6117 35.7585 59.063 38.9653 57.3165C39.8179 56.9222 40.5742 56.3465 41.1813 55.6297C41.7883 54.9128 42.2316 54.072 42.48 53.1661V53.1661Z" fill="#A5C3D2"/>
<path fill-rule="evenodd" clip-rule="evenodd" d="M41.5035 52.9707C41.6193 52.471 41.6397 51.9539 41.5635 51.4466C41.5091 51.1131 41.359 50.8026 41.1315 50.5528C40.6632 50.1798 40.1111 49.9264 39.5229 49.8147C38.1228 49.464 36.6727 49.3569 35.2363 49.498C33.9631 49.546 32.7362 49.9886 31.7256 50.7645C31.4191 51.0404 31.198 51.3983 31.0884 51.7958C30.8984 52.4291 30.8893 53.1029 31.062 53.7412C31.2819 54.4021 31.6314 55.0126 32.09 55.5369C32.7477 56.459 33.7293 57.0989 34.8384 57.3287C36.1196 57.443 37.4026 57.1311 38.4884 56.4415C39.2779 56.0279 39.985 55.4733 40.5747 54.805C41.035 54.2824 41.3545 53.6511 41.5031 52.9707H41.5035ZM43.5249 51.0871C43.6624 51.9752 43.6061 52.8825 43.3599 53.7468C43.1137 54.6111 42.6834 55.4119 42.0985 56.0942C41.3488 56.9501 40.4483 57.661 39.4418 58.1916C37.9729 59.0992 36.2424 59.4886 34.5263 59.2977C32.9287 59 31.5044 58.1051 30.543 56.795C29.914 56.0647 29.4395 55.2145 29.1484 54.2957C28.8704 53.3118 28.8741 52.2697 29.1589 51.2878C29.3635 50.5246 29.7825 49.836 30.3664 49.3036C31.6951 48.2258 33.3323 47.5989 35.041 47.5136C36.7133 47.3499 38.4013 47.4754 40.031 47.8846C40.9858 48.086 41.8698 48.5376 42.5926 49.1931C43.0804 49.7207 43.4044 50.3787 43.5249 51.0871V51.0871Z" fill="#231F20"/>
<path fill-rule="evenodd" clip-rule="evenodd" d="M46.5684 53.1661C46.3938 52.6086 46.3588 52.0167 46.4665 51.4425C46.5742 50.8683 46.8213 50.3293 47.1861 49.873C48.9135 48.0192 57.8208 47.4012 58.9246 51.5418C59.147 52.3496 59.1538 53.2016 58.9446 54.0129C58.7353 54.8242 58.3172 55.5665 57.7318 56.166C55.7476 58.6117 53.2899 59.063 50.0831 57.3165C49.2305 56.9222 48.4742 56.3465 47.8671 55.6297C47.2601 54.9128 46.8168 54.072 46.5684 53.1661V53.1661Z" fill="#A5C3D2"/>
<path fill-rule="evenodd" clip-rule="evenodd" d="M45.5919 53.3614C45.4245 52.6146 45.4013 51.8426 45.5236 51.0871C45.644 50.3788 45.9678 49.7208 46.4556 49.1933C47.1784 48.5377 48.0625 48.0862 49.0173 47.8848C50.647 47.4756 52.335 47.3501 54.0073 47.5138C55.716 47.5991 57.3532 48.2261 58.6819 49.3038C59.266 49.8361 59.6852 50.5246 59.89 51.2878C60.175 52.2697 60.1785 53.3119 59.9 54.2957C59.6088 55.2145 59.1344 56.0647 58.5054 56.795C57.5441 58.1053 56.1197 59.0002 54.5221 59.2977C52.806 59.4887 51.0754 59.0993 49.6066 58.1916C48.6001 57.6611 47.6996 56.9501 46.95 56.0942C46.2716 55.314 45.8041 54.3733 45.5919 53.3614V53.3614ZM47.4846 51.4466C47.3987 52.0446 47.4425 52.654 47.6131 53.2335C47.7837 53.813 48.0771 54.349 48.4733 54.805C49.0631 55.4733 49.7704 56.0279 50.56 56.4415C51.6458 57.131 52.9288 57.4429 54.21 57.3287C55.3191 57.099 56.3007 56.4591 56.9584 55.5369C57.417 55.0126 57.7664 54.4021 57.9863 53.7412C58.1593 53.103 58.1501 52.4291 57.9599 51.7958C57.8503 51.3983 57.6292 51.0404 57.3227 50.7645C56.312 49.9886 55.0852 49.546 53.812 49.498C52.3755 49.3569 50.9255 49.464 49.5254 49.8147C48.9372 49.9265 48.3851 50.1798 47.9168 50.5528C47.6892 50.8026 47.539 51.1131 47.4846 51.4466V51.4466Z" fill="#231F20"/>
<path fill-rule="evenodd" clip-rule="evenodd" d="M37.28 49.4425C37.0148 49.4425 36.7604 49.3371 36.5729 49.1496C36.3854 48.9621 36.28 48.7077 36.28 48.4425C36.28 48.1773 36.3854 47.9229 36.5729 47.7354C36.7604 47.5479 37.0148 47.4425 37.28 47.4425H52.0183C52.2835 47.4425 52.5379 47.5479 52.7254 47.7354C52.9129 47.9229 53.0183 48.1773 53.0183 48.4425C53.0183 48.7077 52.9129 48.9621 52.7254 49.1496C52.5379 49.3371 52.2835 49.4425 52.0183 49.4425H37.28Z" fill="#231F20"/>
</svg>
