<svg width="90" height="90" viewBox="0 0 90 90" fill="none" xmlns="http://www.w3.org/2000/svg">
<path fill-rule="evenodd" clip-rule="evenodd" d="M45.1737 23.0108C46.6967 23.0151 48.1562 23.6221 49.2332 24.699C50.3102 25.7759 50.9172 27.2353 50.9217 28.7584V37.1578C50.9172 38.6809 50.3102 40.1403 49.2332 41.2173C48.1562 42.2942 46.6968 42.9012 45.1737 42.9055V42.9055C43.6507 42.9011 42.1913 42.2942 41.1143 41.2172C40.0374 40.1402 39.4304 38.6808 39.4261 37.1578V28.7584C39.4305 27.2354 40.0374 25.776 41.1143 24.699C42.1913 23.6221 43.6507 23.0152 45.1737 23.0108V23.0108Z" fill="#A54686"/>
<path fill-rule="evenodd" clip-rule="evenodd" d="M45.1737 23.0108C46.6967 23.0151 48.1562 23.6221 49.2332 24.699C50.3102 25.7759 50.9172 27.2353 50.9217 28.7584V37.1578C50.9172 38.6809 50.3102 40.1403 49.2332 41.2173C48.1562 42.2942 46.6968 42.9012 45.1737 42.9055V42.9055C43.6507 42.9011 42.1913 42.2942 41.1143 41.2172C40.0374 40.1402 39.4304 38.6808 39.4261 37.1578V28.7584C39.4305 27.2354 40.0374 25.776 41.1143 24.699C42.1913 23.6221 43.6507 23.0152 45.1737 23.0108V23.0108Z" fill="#A54686"/>
<path fill-rule="evenodd" clip-rule="evenodd" d="M45.1737 22C46.0603 22.0006 46.9381 22.1761 47.7567 22.5167C48.5753 22.8572 49.3187 23.356 49.9441 23.9845L49.9458 23.9865L49.9479 23.9845C50.5766 24.6104 51.0756 25.3543 51.4161 26.1736C51.7567 26.9928 51.9321 27.8712 51.9324 28.7584V37.1578C51.9322 38.045 51.7567 38.9234 51.4161 39.7426C51.0756 40.5619 50.5766 41.3058 49.9479 41.9317C49.9284 41.9512 49.9083 41.9698 49.8877 41.9873C48.9366 42.9143 47.7333 43.5404 46.4283 43.7873C45.1234 44.0343 43.7745 43.8912 42.5504 43.3759C41.3263 42.8606 40.2813 41.9959 39.5458 40.89C38.8103 39.7841 38.4171 38.486 38.4153 37.1578V28.7584C38.4199 26.9674 39.1334 25.251 40.3998 23.9846C41.6663 22.7181 43.3826 22.0046 45.1737 22ZM48.5206 25.4119C47.8578 24.7514 47.0143 24.3019 46.0965 24.1201C45.1786 23.9383 44.2275 24.0322 43.363 24.3901C42.4985 24.748 41.7592 25.3538 41.2385 26.1312C40.7177 26.9086 40.4388 27.8227 40.4368 28.7584V37.1578C40.436 38.0891 40.71 38.9998 41.2244 39.7761C41.7388 40.5524 42.4708 41.1597 43.3287 41.522C44.1866 41.8842 45.1323 41.9854 46.0474 41.8127C46.9625 41.6401 47.8063 41.2013 48.4733 40.5514L48.5188 40.5027C48.9596 40.0642 49.3094 39.543 49.5483 38.969C49.7872 38.395 49.9104 37.7795 49.9109 37.1578V28.7584C49.9104 28.1367 49.7872 27.5212 49.5483 26.9472C49.3094 26.3732 48.9596 25.8521 48.5188 25.4136L48.5206 25.4119Z" fill="#231F20"/>
<path d="M36.5517 40.1577C37.0357 40.1577 37.428 39.7654 37.428 39.2814C37.428 38.7974 37.0357 38.405 36.5517 38.405C36.0677 38.405 35.6753 38.7974 35.6753 39.2814C35.6753 39.7654 36.0677 40.1577 36.5517 40.1577Z" fill="#231F20"/>
<path fill-rule="evenodd" clip-rule="evenodd" d="M36.5517 35.515C36.725 35.515 36.8945 35.5664 37.0386 35.6627C37.1828 35.759 37.2951 35.8959 37.3615 36.056C37.4278 36.2162 37.4452 36.3924 37.4114 36.5624C37.3776 36.7325 37.2941 36.8886 37.1716 37.0112C37.049 37.1338 36.8928 37.2173 36.7228 37.2511C36.5528 37.285 36.3765 37.2676 36.2164 37.2013C36.0562 37.1349 35.9193 37.0226 35.823 36.8785C35.7267 36.7343 35.6753 36.5649 35.6753 36.3915C35.6753 36.1591 35.7677 35.9362 35.932 35.7718C36.0963 35.6075 36.3192 35.5151 36.5517 35.515V35.515Z" fill="#231F20"/>
<path fill-rule="evenodd" clip-rule="evenodd" d="M36.5517 32.6257C36.725 32.6257 36.8945 32.677 37.0386 32.7733C37.1828 32.8696 37.2951 33.0065 37.3615 33.1667C37.4278 33.3268 37.4452 33.5031 37.4114 33.6731C37.3776 33.8431 37.2941 33.9993 37.1716 34.1219C37.049 34.2445 36.8928 34.3279 36.7228 34.3618C36.5528 34.3956 36.3765 34.3782 36.2164 34.3119C36.0562 34.2456 35.9193 34.1332 35.823 33.9891C35.7267 33.845 35.6753 33.6755 35.6753 33.5021C35.6753 33.2697 35.7677 33.0468 35.932 32.8825C36.0963 32.7181 36.3192 32.6257 36.5517 32.6257V32.6257Z" fill="#231F20"/>
<path fill-rule="evenodd" clip-rule="evenodd" d="M33.9932 40.3007C34.1665 40.3006 34.336 40.352 34.4802 40.4483C34.6243 40.5446 34.7367 40.6815 34.803 40.8416C34.8694 41.0018 34.8867 41.178 34.8529 41.3481C34.8191 41.5181 34.7357 41.6743 34.6131 41.7968C34.4905 41.9194 34.3343 42.0029 34.1643 42.0367C33.9943 42.0706 33.8181 42.0532 33.6579 41.9869C33.4977 41.9206 33.3609 41.8082 33.2645 41.6641C33.1682 41.5199 33.1168 41.3505 33.1168 41.1771C33.1169 40.9447 33.2092 40.7218 33.3736 40.5575C33.5379 40.3931 33.7608 40.3007 33.9932 40.3007V40.3007Z" fill="#231F20"/>
<path fill-rule="evenodd" clip-rule="evenodd" d="M33.9932 37.4108C34.1665 37.4108 34.336 37.4622 34.4802 37.5585C34.6243 37.6548 34.7367 37.7916 34.803 37.9518C34.8694 38.112 34.8867 38.2882 34.8529 38.4582C34.8191 38.6283 34.7356 38.7844 34.6131 38.907C34.4905 39.0296 34.3343 39.1131 34.1643 39.1469C33.9942 39.1807 33.818 39.1633 33.6578 39.097C33.4977 39.0306 33.3608 38.9183 33.2645 38.7741C33.1682 38.63 33.1168 38.4605 33.1168 38.2872C33.1169 38.0548 33.2093 37.8319 33.3736 37.6676C33.5379 37.5032 33.7608 37.4109 33.9932 37.4108V37.4108Z" fill="#231F20"/>
<path fill-rule="evenodd" clip-rule="evenodd" d="M33.9932 34.5209C34.1665 34.5209 34.336 34.5723 34.4802 34.6686C34.6243 34.7649 34.7367 34.9018 34.803 35.0619C34.8694 35.2221 34.8867 35.3983 34.8529 35.5684C34.8191 35.7384 34.7356 35.8946 34.6131 36.0171C34.4905 36.1397 34.3343 36.2232 34.1643 36.257C33.9942 36.2908 33.818 36.2735 33.6578 36.2071C33.4977 36.1408 33.3608 36.0284 33.2645 35.8843C33.1682 35.7401 33.1168 35.5706 33.1168 35.3973C33.1169 35.1649 33.2093 34.942 33.3736 34.7777C33.5379 34.6134 33.7608 34.521 33.9932 34.5209V34.5209Z" fill="#231F20"/>
<path d="M31.4348 44.754C31.9188 44.754 32.3112 44.3616 32.3112 43.8776C32.3112 43.3936 31.9188 43.0012 31.4348 43.0012C30.9508 43.0012 30.5585 43.3936 30.5585 43.8776C30.5585 44.3616 30.9508 44.754 31.4348 44.754Z" fill="#231F20"/>
<path d="M31.4348 41.8641C31.9188 41.8641 32.3112 41.4717 32.3112 40.9877C32.3112 40.5037 31.9188 40.1114 31.4348 40.1114C30.9508 40.1114 30.5585 40.5037 30.5585 40.9877C30.5585 41.4717 30.9508 41.8641 31.4348 41.8641Z" fill="#231F20"/>
<path d="M31.4348 38.9742C31.9188 38.9742 32.3112 38.5819 32.3112 38.0979C32.3112 37.6139 31.9188 37.2215 31.4348 37.2215C30.9508 37.2215 30.5585 37.6139 30.5585 38.0979C30.5585 38.5819 30.9508 38.9742 31.4348 38.9742Z" fill="#231F20"/>
<path fill-rule="evenodd" clip-rule="evenodd" d="M28.8765 46.8385C29.0498 46.8385 29.2192 46.8899 29.3633 46.9862C29.5074 47.0826 29.6197 47.2194 29.6861 47.3796C29.7524 47.5397 29.7697 47.7159 29.7359 47.8859C29.7021 48.0559 29.6186 48.212 29.496 48.3346C29.3735 48.4571 29.2173 48.5406 29.0473 48.5744C28.8773 48.6082 28.7011 48.5909 28.541 48.5245C28.3808 48.4582 28.244 48.3459 28.1477 48.2017C28.0514 48.0576 28 47.8882 28 47.7149C28.0001 47.4824 28.0924 47.2595 28.2568 47.0952C28.4211 46.9309 28.644 46.8385 28.8765 46.8385V46.8385Z" fill="#231F20"/>
<path fill-rule="evenodd" clip-rule="evenodd" d="M28.8765 43.9486C29.0498 43.9487 29.2192 44.0001 29.3633 44.0964C29.5074 44.1927 29.6197 44.3296 29.6861 44.4897C29.7524 44.6498 29.7697 44.826 29.7359 44.996C29.7021 45.166 29.6186 45.3222 29.496 45.4447C29.3735 45.5673 29.2173 45.6507 29.0473 45.6845C28.8773 45.7184 28.7011 45.701 28.541 45.6347C28.3808 45.5683 28.244 45.456 28.1477 45.3119C28.0514 45.1678 28 44.9983 28 44.825C28.0001 44.5926 28.0924 44.3697 28.2568 44.2053C28.4211 44.041 28.644 43.9487 28.8765 43.9486V43.9486Z" fill="#231F20"/>
<path fill-rule="evenodd" clip-rule="evenodd" d="M28.8765 41.0588C29.0498 41.0588 29.2192 41.1102 29.3633 41.2065C29.5074 41.3028 29.6197 41.4397 29.6861 41.5998C29.7524 41.76 29.7697 41.9362 29.7359 42.1062C29.7021 42.2762 29.6186 42.4323 29.496 42.5549C29.3735 42.6774 29.2173 42.7609 29.0473 42.7947C28.8773 42.8285 28.7011 42.8111 28.541 42.7448C28.3808 42.6785 28.244 42.5661 28.1477 42.422C28.0514 42.2779 28 42.1085 28 41.9351C28.0001 41.7027 28.0924 41.4798 28.2568 41.3155C28.4211 41.1511 28.644 41.0588 28.8765 41.0588V41.0588Z" fill="#231F20"/>
<path d="M53.7964 40.1577C54.2804 40.1577 54.6727 39.7654 54.6727 39.2814C54.6727 38.7974 54.2804 38.405 53.7964 38.405C53.3123 38.405 52.92 38.7974 52.92 39.2814C52.92 39.7654 53.3123 40.1577 53.7964 40.1577Z" fill="#231F20"/>
<path fill-rule="evenodd" clip-rule="evenodd" d="M53.7964 35.515C53.623 35.515 53.4536 35.5664 53.3094 35.6627C53.1653 35.759 53.0529 35.8959 52.9865 36.056C52.9202 36.2162 52.9028 36.3924 52.9366 36.5624C52.9704 36.7325 53.0539 36.8886 53.1765 37.0112C53.299 37.1338 53.4552 37.2173 53.6252 37.2511C53.7953 37.285 53.9715 37.2676 54.1317 37.2013C54.2918 37.1349 54.4287 37.0226 54.525 36.8785C54.6213 36.7343 54.6727 36.5649 54.6727 36.3915C54.6727 36.1591 54.5804 35.9362 54.416 35.7718C54.2517 35.6075 54.0288 35.5151 53.7964 35.515V35.515Z" fill="#231F20"/>
<path fill-rule="evenodd" clip-rule="evenodd" d="M53.7964 32.6257C53.623 32.6257 53.4536 32.677 53.3094 32.7733C53.1653 32.8696 53.0529 33.0065 52.9865 33.1667C52.9202 33.3268 52.9028 33.5031 52.9366 33.6731C52.9704 33.8431 53.0539 33.9993 53.1765 34.1219C53.299 34.2445 53.4552 34.3279 53.6252 34.3618C53.7953 34.3956 53.9715 34.3782 54.1317 34.3119C54.2918 34.2456 54.4287 34.1332 54.525 33.9891C54.6213 33.845 54.6727 33.6755 54.6727 33.5021C54.6727 33.2697 54.5804 33.0468 54.416 32.8825C54.2517 32.7181 54.0288 32.6257 53.7964 32.6257V32.6257Z" fill="#231F20"/>
<path fill-rule="evenodd" clip-rule="evenodd" d="M56.3547 40.3007C56.1814 40.3006 56.0119 40.352 55.8678 40.4483C55.7236 40.5446 55.6112 40.6815 55.5449 40.8416C55.4785 41.0018 55.4612 41.178 55.495 41.3481C55.5288 41.5181 55.6123 41.6743 55.7348 41.7968C55.8574 41.9194 56.0136 42.0029 56.1836 42.0367C56.3536 42.0706 56.5298 42.0532 56.69 41.9869C56.8502 41.9206 56.9871 41.8082 57.0834 41.6641C57.1797 41.5199 57.2311 41.3505 57.2311 41.1771C57.2311 40.9447 57.1387 40.7218 56.9744 40.5574C56.81 40.3931 56.5871 40.3007 56.3547 40.3007Z" fill="#231F20"/>
<path fill-rule="evenodd" clip-rule="evenodd" d="M56.3547 37.4108C56.1814 37.4108 56.0119 37.4622 55.8677 37.5585C55.7236 37.6548 55.6112 37.7916 55.5449 37.9518C55.4785 38.112 55.4612 38.2882 55.495 38.4582C55.5288 38.6283 55.6123 38.7844 55.7349 38.907C55.8574 39.0296 56.0136 39.1131 56.1837 39.1469C56.3537 39.1807 56.5299 39.1633 56.6901 39.097C56.8502 39.0306 56.9871 38.9183 57.0834 38.7741C57.1797 38.63 57.2311 38.4605 57.2311 38.2872C57.231 38.0547 57.1387 37.8319 56.9743 37.6675C56.81 37.5032 56.5871 37.4108 56.3547 37.4108V37.4108Z" fill="#231F20"/>
<path fill-rule="evenodd" clip-rule="evenodd" d="M56.3547 34.5209C56.1814 34.5209 56.0119 34.5723 55.8677 34.6686C55.7236 34.7649 55.6112 34.9018 55.5449 35.0619C55.4785 35.2221 55.4612 35.3983 55.495 35.5684C55.5288 35.7384 55.6123 35.8946 55.7349 36.0171C55.8574 36.1397 56.0136 36.2232 56.1837 36.257C56.3537 36.2908 56.5299 36.2735 56.6901 36.2071C56.8502 36.1408 56.9871 36.0284 57.0834 35.8843C57.1797 35.7401 57.2311 35.5706 57.2311 35.3973C57.231 35.1649 57.1387 34.942 56.9743 34.7777C56.81 34.6133 56.5871 34.521 56.3547 34.5209V34.5209Z" fill="#231F20"/>
<path fill-rule="evenodd" clip-rule="evenodd" d="M58.9132 43.0012C58.7398 43.0012 58.5704 43.0526 58.4263 43.1489C58.2822 43.2452 58.1698 43.3821 58.1035 43.5422C58.0372 43.7024 58.0198 43.8786 58.0536 44.0486C58.0875 44.2186 58.1709 44.3747 58.2935 44.4973C58.4161 44.6198 58.5722 44.7033 58.7422 44.7371C58.9122 44.7709 59.0884 44.7536 59.2485 44.6873C59.4087 44.6209 59.5456 44.5086 59.6418 44.3645C59.7381 44.2204 59.7895 44.0509 59.7895 43.8776C59.7895 43.6452 59.6971 43.4223 59.5328 43.258C59.3685 43.0936 59.1456 43.0013 58.9132 43.0012V43.0012Z" fill="#231F20"/>
<path fill-rule="evenodd" clip-rule="evenodd" d="M58.9132 40.1114C58.7398 40.1114 58.5704 40.1627 58.4263 40.259C58.2822 40.3553 58.1698 40.4922 58.1035 40.6523C58.0372 40.8125 58.0198 40.9887 58.0536 41.1587C58.0875 41.3287 58.1709 41.4848 58.2935 41.6074C58.4161 41.73 58.5722 41.8134 58.7422 41.8473C58.9122 41.8811 59.0884 41.8637 59.2485 41.7974C59.4087 41.7311 59.5456 41.6187 59.6418 41.4746C59.7381 41.3305 59.7895 41.161 59.7895 40.9877C59.7895 40.7553 59.6971 40.5324 59.5328 40.3681C59.3685 40.2038 59.1456 40.1114 58.9132 40.1114V40.1114Z" fill="#231F20"/>
<path fill-rule="evenodd" clip-rule="evenodd" d="M58.9132 37.2215C58.7398 37.2215 58.5704 37.2729 58.4263 37.3692C58.2822 37.4655 58.1698 37.6023 58.1035 37.7625C58.0372 37.9226 58.0198 38.0988 58.0536 38.2688C58.0875 38.4388 58.1709 38.595 58.2935 38.7175C58.4161 38.8401 58.5722 38.9236 58.7422 38.9574C58.9122 38.9912 59.0884 38.9738 59.2485 38.9075C59.4087 38.8412 59.5456 38.7289 59.6418 38.5847C59.7381 38.4406 59.7895 38.2712 59.7895 38.0979C59.7895 37.8654 59.6971 37.6426 59.5328 37.4782C59.3685 37.3139 59.1456 37.2215 58.9132 37.2215Z" fill="#231F20"/>
<path d="M61.4715 48.5912C61.9555 48.5912 62.3479 48.1989 62.3479 47.7149C62.3479 47.2309 61.9555 46.8385 61.4715 46.8385C60.9875 46.8385 60.5952 47.2309 60.5952 47.7149C60.5952 48.1989 60.9875 48.5912 61.4715 48.5912Z" fill="#231F20"/>
<path d="M61.4715 45.7014C61.9555 45.7014 62.3479 45.309 62.3479 44.825C62.3479 44.341 61.9555 43.9486 61.4715 43.9486C60.9875 43.9486 60.5952 44.341 60.5952 44.825C60.5952 45.309 60.9875 45.7014 61.4715 45.7014Z" fill="#231F20"/>
<path d="M61.4715 42.8115C61.9555 42.8115 62.3479 42.4192 62.3479 41.9351C62.3479 41.4511 61.9555 41.0588 61.4715 41.0588C60.9875 41.0588 60.5952 41.4511 60.5952 41.9351C60.5952 42.4192 60.9875 42.8115 61.4715 42.8115Z" fill="#231F20"/>
</svg>
