<svg width="90" height="90" viewBox="0 0 90 90" fill="none" xmlns="http://www.w3.org/2000/svg">
<path fill-rule="evenodd" clip-rule="evenodd" d="M28.1977 59.5208C30.1053 62.3759 32.6797 64.6939 35.6728 66.2908C29.8958 72.0368 25.796 75.4454 15.9804 71.4103C21.5513 68.3635 21.7749 64.8049 18.0449 59.7703C13.7361 53.9553 18.2089 47.9425 20.3649 45.9885C17.418 45.3219 16.0522 38.5895 21.2624 35.3507C21.3909 34.7887 21.5687 34.2202 21.7939 33.6509C20.5327 30.6699 21.5482 21.6484 31.0455 17.5256C38.5723 14.2586 50.5499 14.3797 57.8068 17.4386C67.4903 21.5215 68.5262 30.6517 67.2544 33.652C67.4792 34.2205 67.6568 34.7883 67.7851 35.3495C72.9971 38.588 71.6308 45.3213 68.6837 45.988C70.8393 47.942 75.3121 53.9548 71.0037 59.7698C67.2736 64.8048 67.4972 68.3634 73.0682 71.4098C63.5952 75.3044 59.4458 72.2658 53.9749 66.8842C58.1251 65.0046 61.5465 61.806 63.7 57.777C65.9598 53.5492 66.6837 48.6687 65.7484 43.967C65.6687 43.5664 65.5774 43.1692 65.4747 42.7758C62.0362 45.3286 55.865 44.6242 50.6439 40.8085C47.8841 38.8725 45.7555 36.1666 44.5239 33.0285C43.292 36.1664 41.1635 38.8723 38.4039 40.8085C33.9139 44.0895 28.7213 45.0704 25.1682 43.657C25.0042 44.4201 24.8829 45.1949 24.8057 45.978C24.3357 50.7487 25.5345 55.5348 28.1977 59.5208Z" fill="#231F20"/>
</svg>
