<svg width="90" height="90" viewBox="0 0 90 90" fill="none" xmlns="http://www.w3.org/2000/svg">
<path fill-rule="evenodd" clip-rule="evenodd" d="M26.2782 53.4207H25.8856C25.7691 53.3213 25.6523 53.222 25.5354 53.1227C22.0798 50.186 18.531 47.17 20.587 39.0697C23.9955 25.6382 34.7697 18.8996 45.5148 18.9572C56.1893 19.0139 66.8372 25.78 70.2099 39.0697C72.2657 47.1699 68.7167 50.186 65.2611 53.1228C65.1442 53.2221 65.0275 53.3214 64.911 53.4207H64.7783C65.4203 50.6993 65.4779 47.8534 64.9227 45.0733C64.0301 40.6045 61.6094 36.5822 58.0728 33.6917C54.5363 30.8012 50.1029 29.2214 45.5279 29.2215V29.221C42.9307 29.2177 40.3585 29.7256 37.959 30.7155C35.5596 31.7054 33.3802 33.1578 31.5461 34.9892C28.311 38.2109 26.2976 42.4501 25.8491 46.9845C25.6344 49.1549 25.7845 51.3286 26.2782 53.4207Z" fill="#FFF9AE"/>
<path fill-rule="evenodd" clip-rule="evenodd" d="M65.0823 38.6204L65.7966 45H41.6985L39.87 32.0328L37.97 45H25.7966L28.6528 31.9635L41.9385 26L52.6528 26.2774L62.5109 31.5474L65.0823 38.6204Z" fill="#FFF9AE"/>
<path fill-rule="evenodd" clip-rule="evenodd" d="M65.8318 44.1272C66.0877 44.1272 66.3331 44.2258 66.514 44.4014C66.695 44.577 66.7966 44.8151 66.7966 45.0634C66.7966 45.3117 66.695 45.5498 66.514 45.7254C66.3331 45.901 66.0877 45.9996 65.8318 45.9996H41.6725C41.4272 45.9997 41.1911 45.909 41.0122 45.746C40.8333 45.5831 40.7251 45.3602 40.7096 45.1226L39.8026 38.6915L38.849 45.1954C38.8163 45.4183 38.7018 45.6222 38.5266 45.7697C38.3514 45.9172 38.1272 45.9984 37.8953 45.9984V46H25.7615C25.5056 46 25.2602 45.9014 25.0792 45.7258C24.8983 45.5502 24.7966 45.3121 24.7966 45.0638C24.7966 44.8155 24.8983 44.5774 25.0792 44.4018C25.2602 44.2262 25.5056 44.1276 25.7615 44.1276H37.0595L38.8665 31.8018H38.8673C38.9002 31.5786 39.0151 31.3746 39.1909 31.2272C39.3667 31.0798 39.5915 30.9991 39.8238 31C40.0561 31.0009 40.2802 31.0832 40.4548 31.2319C40.6294 31.3806 40.7427 31.5855 40.7738 31.8089L42.5116 44.1272H65.8318Z" fill="#231F20"/>
<path fill-rule="evenodd" clip-rule="evenodd" d="M26.5157 52.46H26.238L26.2382 52.4603L26.161 52.3944C22.9298 49.6485 19.6117 46.828 21.5215 39.3025C22.8058 33.7834 25.8696 28.835 30.2444 25.2139C34.5581 21.768 39.9268 19.8975 45.4566 19.9139C50.9865 19.9302 56.3439 21.8324 60.6369 25.3038C64.9641 28.9138 67.9958 33.8268 69.2753 39.3022C71.1852 46.8279 67.8665 49.6487 64.6358 52.3944L64.5586 52.46H64.0054C63.9516 53.1104 63.8644 53.7514 63.7456 54.3812H64.911V54.3814C65.1639 54.3816 65.4066 54.2826 65.5868 54.1058L65.8868 53.8507C69.5665 50.7238 73.3457 47.5117 71.1445 38.8371C69.766 32.9603 66.5068 27.6889 61.8581 23.8175C57.2201 20.0695 51.4332 18.0164 45.4604 18.0001C39.4877 17.9838 33.6895 20.0051 29.031 23.7277C24.3313 27.6084 21.0371 32.9153 19.6523 38.8369C17.4509 47.5107 21.2297 50.7233 24.9091 53.8502L25.2599 54.1487C25.4341 54.2975 25.6561 54.3791 25.8856 54.3787V54.3812H26.7755C26.6567 53.7514 26.5695 53.1104 26.5157 52.46Z" fill="#231F20"/>
</svg>
