<svg width="90" height="90" viewBox="0 0 90 90" fill="none" xmlns="http://www.w3.org/2000/svg">
<path fill-rule="evenodd" clip-rule="evenodd" d="M66.473 23.816C60.6843 18.3083 52.9901 15.2524 45 15.2874C37.01 15.2524 29.3159 18.3084 23.5272 23.816C20.7195 26.4703 18.4811 29.6681 16.9482 33.2148C15.4153 36.7615 14.6199 40.583 14.6104 44.4467C14.6091 47.6013 15.1399 50.7334 16.1804 53.7114C17.2309 56.7104 18.772 59.5141 20.7408 62.0083L21.0459 62.3954H31.9459C27.8646 58.7844 25.2915 53.5076 25.2915 47.6297C25.2915 47.1913 25.3058 46.7563 25.334 46.325H33.338L33.3683 46.107L34.1965 40.2694L35.0973 33.9198L35.9981 40.2697L36.8264 46.107L36.8573 46.325H43.241L43.2713 46.107L44.0996 40.2694L45.0003 33.9198L45.901 40.2697L46.7293 46.107L46.7596 46.325H53.1425L53.1734 46.107L54.0017 40.2694L54.9025 33.9198L55.8033 40.2697L56.632 46.107L56.6623 46.325H64.666C64.6942 46.7563 64.7085 47.1913 64.7085 47.6297C64.7085 53.5076 62.1354 58.7844 58.0541 62.3954H68.9543L69.2594 62.0083C71.2282 59.5141 72.7693 56.7104 73.8198 53.7114C74.8603 50.7334 75.3911 47.6013 75.3898 44.4467C75.3803 40.583 74.5849 36.7615 73.052 33.2148C71.5191 29.6681 69.2807 26.4703 66.473 23.816Z" fill="#231F20"/>
</svg>
