<svg width="90" height="90" viewBox="0 0 90 90" fill="none" xmlns="http://www.w3.org/2000/svg">
<path fill-rule="evenodd" clip-rule="evenodd" d="M64.0943 29.8375C65.8343 23.3482 62.457 19.5667 58.6943 18C59.5987 27.4452 51.7182 25.8035 45.2949 24.4655C44.7929 24.3609 44.2999 24.2582 43.8207 24.1628C31.8352 21.7775 27.2811 27.0995 27.0693 31.2781C27.0211 32.2289 27.2656 33.1248 27.7522 33.9553C24.7743 36.8639 23 40.5237 23 44.4994C23 47.9197 24.3132 51.1062 26.5763 53.7818C26.0177 51.9559 25.7172 50.0173 25.7172 48.0085C25.7172 43.5376 27.2059 39.4144 29.7147 36.1076C36.2126 41.1771 52.9573 42.2864 60.6049 35.4371C63.4338 38.849 65.1343 43.2301 65.1343 48.0085C65.1343 50.1129 64.8045 52.1402 64.1937 54.0417C66.594 51.3136 67.9942 48.0312 67.9942 44.4994C67.9942 40.2091 65.928 36.2868 62.5128 33.2791C63.2135 32.2579 63.7523 31.1131 64.0943 29.8375Z" fill="#231F20"/>
</svg>
