<svg width="90" height="90" viewBox="0 0 90 90" fill="none" xmlns="http://www.w3.org/2000/svg">
<path fill-rule="evenodd" clip-rule="evenodd" d="M17.6162 38.8933C24.3557 49.2794 31.5366 49.0837 41.655 50.1156C27.7967 42.6861 32.7463 33.8049 40.186 37.4605C43.7138 39.1941 48.6031 46.2864 50.828 52.9786C54.7788 48.4214 52.6431 40.1235 50.0706 35.521C56.1293 35.1167 62.1815 41.9835 65.9669 55.3724C77.9393 32.8876 56.1802 12.6826 35.5637 17.628C22.6642 20.7216 12.9142 31.6476 17.6162 38.8933Z" fill="#F6ADCD"/>
<path fill-rule="evenodd" clip-rule="evenodd" d="M19.1007 39.6646C23.9543 47.0861 29.2385 48.6016 35.9354 49.3169C34.18 47.8978 32.8354 45.9204 32.0911 43.6628C31.7546 42.4926 31.7508 41.2531 32.0803 40.1214C32.4073 39.0548 33.0316 38.1497 33.8644 37.5343L33.9144 37.4982C35.018 36.8023 36.2706 36.4269 37.5647 36.4041C38.8588 36.3813 40.1559 36.7119 41.3447 37.3675C43.9327 38.8978 46.1749 41.1079 47.8687 43.798C49.357 45.9578 50.6459 48.2758 51.7137 50.7135C52.1098 49.4831 52.2804 48.1633 52.2158 46.8302C52.0329 43.6449 51.1273 40.5202 49.5853 37.7544C49.4379 37.4904 49.3532 37.1911 49.3399 36.8869C49.3266 36.5827 49.3851 36.2844 49.5095 36.0223C49.6339 35.7601 49.8198 35.5434 50.0483 35.3941C50.2769 35.2448 50.5399 35.1683 50.8107 35.1722C52.7371 35.132 54.6697 35.6073 56.4493 36.5591C58.2288 37.5109 59.8044 38.9119 61.0461 40.6466C63.6817 44.0953 65.732 48.0424 67.0865 52.275C68.9294 48.0283 69.3576 43.1105 68.2973 38.3686C67.6448 35.7257 66.5126 33.2354 64.9739 31.0581C63.355 28.7726 61.4065 26.8017 59.2171 25.2351C55.8327 22.8782 52.1006 21.2762 48.2383 20.5225C44.3761 19.7688 40.461 19.8785 36.7213 20.8452C32.3689 21.9036 28.2791 23.8866 24.6667 26.69C22.5663 28.2703 20.7774 30.3046 19.3969 32.683C18.918 33.4338 18.5819 34.2919 18.408 35.2079C18.2341 36.1239 18.2257 37.0796 18.3835 38.0197C18.5282 38.609 18.7715 39.1678 19.1007 39.6646ZM39.6902 53.0961C30.2761 52.3249 23.3063 51.7537 16.6644 41.5968C16.0959 40.737 15.6753 39.7707 15.4259 38.7515C15.152 37.3623 15.128 35.9408 15.3552 34.572C15.5825 33.2031 16.0563 31.9151 16.7485 30.785C18.3313 28.0317 20.3883 25.6751 22.8076 23.8434C26.7317 20.7926 31.1753 18.6333 35.905 17.4788C40.0439 16.4167 44.3756 16.3031 48.6475 17.1447C52.9193 17.9862 57.0458 19.7661 60.7862 22.3805C63.2846 24.1703 65.5076 26.4215 67.354 29.0318C69.1619 31.5948 70.491 34.5258 71.2552 37.6355C72.7102 43.6451 71.9928 50.4612 68.1756 57.4711C68.0329 57.7592 67.8154 57.989 67.5501 58.1319C67.2849 58.2748 66.9837 58.3246 66.684 58.2749C66.3844 58.2252 66.0995 58.0783 65.865 57.8525C65.6305 57.6268 65.4566 57.3321 65.3651 57.0052C64.1233 51.8647 61.8896 47.0368 58.8266 42.8727C57.4199 41.0013 55.5689 39.6148 53.5116 38.8917C54.5419 41.4334 55.1407 44.146 55.276 46.8839C55.3853 48.4836 55.2081 50.074 54.7549 51.5609C54.3017 53.0478 53.5819 54.4008 52.6379 55.54C52.4643 55.7552 52.2413 55.9128 51.9908 55.9975C51.7402 56.0821 51.4707 56.0908 51.2087 56.0227C50.9467 55.9547 50.7013 55.8122 50.4966 55.6092C50.2918 55.4062 50.1348 55.1498 50.0408 54.8651C48.9353 51.6264 47.3977 48.5723 45.4828 45.8116C44.1334 43.6286 42.3515 41.815 40.2885 40.5251C39.5656 40.0978 38.7719 39.8643 37.9729 39.844C37.1739 39.8236 36.3925 40.0168 35.6933 40.4078L35.6761 40.4215C35.3593 40.6496 35.1198 40.9875 34.9911 41.3876C34.8683 41.8497 34.88 42.3514 35.0244 42.8223C35.5784 44.8679 37.8435 47.4646 42.7096 50.0044C43.0514 50.1643 43.338 50.4523 43.5184 50.8171C43.6988 51.1818 43.7611 51.5996 43.6944 51.9958C43.6276 52.3921 43.436 52.741 43.1538 52.9803C42.8717 53.2196 42.5172 53.3338 42.1538 53.3024C41.6838 53.2594 40.6869 53.1776 39.6902 53.0961Z" fill="#231F20"/>
</svg>
