<svg width="90" height="90" viewBox="0 0 90 90" fill="none" xmlns="http://www.w3.org/2000/svg">
<path fill-rule="evenodd" clip-rule="evenodd" d="M16.4531 47.2946C6.81714 55.0221 17.5301 60.9139 22.3975 60.2288C21.1634 63.4816 25.1475 65.7196 31.1998 66.9737C31.9789 66.2758 32.8054 65.6411 33.6714 65.0728C31.5275 63.5958 29.6652 61.7172 28.1977 59.5208C25.5345 55.5348 24.3357 50.7487 24.8057 45.978C25.2757 41.2073 27.3854 36.7472 30.7752 33.3575C32.697 31.4307 34.9806 29.9026 37.4949 28.8611C40.0091 27.8196 42.7044 27.2852 45.4258 27.2886V27.2891C50.2196 27.289 54.8651 28.9511 58.5708 31.9922C62.2765 35.0333 64.8131 39.2653 65.7484 43.967C66.6837 48.6687 65.9598 53.5492 63.7 57.777C62.0718 60.8231 59.719 63.3945 56.8744 65.2801C57.5716 65.7557 58.242 66.2751 58.8814 66.8365C64.8049 65.546 68.6592 63.3335 67.3972 60.2288C72.2643 60.9136 82.9775 55.0221 73.342 47.2946C76.7461 46.2954 85.2387 41.4073 74.6581 38.7354C65.8292 36.5054 63.9525 31.1186 62.3235 26.4424C61.3827 23.7419 60.5244 21.2784 58.4574 19.7968C55.8648 17.9393 51.1088 17.0107 44.8588 19.5383C38.6087 17.0107 33.9301 17.9393 31.3381 19.7968C29.2708 21.2783 28.4124 23.7419 27.4715 26.4426C25.8424 31.1187 23.9656 36.5055 15.1367 38.7354C4.55614 41.4073 13.0487 46.2946 16.4531 47.2946Z" fill="#FFFCD5"/>
<path fill-rule="evenodd" clip-rule="evenodd" d="M15.3358 59.3366C17.0887 60.4493 19.0891 61.1123 21.1596 61.2666H21.1592C21.0438 63.6088 23.1001 65.4012 26.4674 66.6788C27.6042 67.11 28.9041 67.4849 30.3252 67.8038C30.3444 67.7845 30.3636 67.7653 30.3829 67.746C30.9523 67.1778 31.5512 66.6459 32.1759 66.1518C30.2911 65.7971 28.5919 65.3506 27.1704 64.8114C24.2955 63.7204 22.6798 62.2973 23.3309 60.5804C23.3918 60.4186 23.4096 60.2437 23.3826 60.073C23.3556 59.9022 23.2846 59.7414 23.1768 59.6063C23.0689 59.4712 22.9277 59.3665 22.7672 59.3023C22.6067 59.2382 22.4322 59.2168 22.2609 59.2404C20.1892 59.3618 18.1342 58.8059 16.4062 57.6566C15.4683 57.0928 14.6776 56.3143 14.0992 55.3853C13.5967 54.5468 13.441 53.5453 13.6652 52.5938C13.9753 51.2517 15.0085 49.7317 17.0778 48.0717C17.2198 47.9575 17.3277 47.8066 17.39 47.6354C17.4523 47.4642 17.4665 47.2792 17.431 47.1005C17.3956 46.9217 17.3119 46.7562 17.189 46.6216C17.0662 46.4871 16.9088 46.3888 16.734 46.3374C14.9367 45.7843 13.2759 44.8594 11.8592 43.6227C11.4689 43.2927 11.1771 42.8614 11.0159 42.3763C10.9887 42.2149 11.0037 42.0492 11.0594 41.8953C11.1152 41.7415 11.2098 41.6046 11.334 41.4981C11.9355 40.8697 13.1952 40.2554 15.3784 39.7041C24.7288 37.3422 26.7011 31.6829 28.4124 26.7707C29.2982 24.2283 30.1067 21.9084 31.9197 20.6093C33.5352 19.5325 35.4384 18.9688 37.3797 18.9922C39.8239 18.9988 42.2415 19.4994 44.4873 20.4639C44.7254 20.5596 44.9913 20.5596 45.2294 20.4639C47.4865 19.4972 49.9157 18.9965 52.371 18.992C54.3265 18.9659 56.2445 19.5294 57.8751 20.6091C59.6881 21.9082 60.4965 24.2281 61.3821 26.7705C63.0934 31.6827 65.0661 37.342 74.4161 39.7039C75.895 39.9478 77.287 40.5658 78.4597 41.4992C78.584 41.6057 78.6785 41.7426 78.7343 41.8965C78.79 42.0503 78.805 42.216 78.7778 42.3774C78.6167 42.8625 78.3249 43.2938 77.9345 43.6238C76.5181 44.8606 74.8573 45.7856 73.06 46.3385C72.2099 46.5875 72.1674 47.4733 72.7238 48.0785C74.7883 49.7356 75.8188 51.2533 76.1288 52.5944C76.3532 53.5459 76.1975 54.5474 75.6948 55.3859C75.1164 56.3149 74.3257 57.0933 73.3877 57.657C71.6598 58.8063 69.6048 59.3622 67.533 59.2408C67.3596 59.2169 67.183 59.239 67.0209 59.3049C66.8587 59.3708 66.7168 59.4782 66.6092 59.6162C66.5017 59.7543 66.4323 59.9183 66.4082 60.0916C66.384 60.265 66.4059 60.4417 66.4715 60.6039H66.4706C67.1035 62.1601 65.6646 63.4987 63.0406 64.5653C61.6066 65.1482 59.8566 65.6349 57.8971 66.0243C58.5481 66.5288 59.1718 67.0739 59.7641 67.6579C61.2645 67.305 62.6236 66.8912 63.7906 66.4168C66.8959 65.1546 68.7651 63.4433 68.6531 61.2657C70.7174 61.1083 72.7112 60.4456 74.4589 59.336C75.6682 58.5996 76.6842 57.5852 77.4225 56.3771C78.1826 55.1062 78.4168 53.5889 78.0753 52.1479C77.5888 50.4045 76.6071 48.8396 75.2492 47.6428C76.742 47.0105 78.1196 46.1351 79.326 45.0522C80.0001 44.4548 80.4859 43.6743 80.7243 42.8057C80.8336 42.3241 80.8148 41.8224 80.6699 41.3503C80.525 40.8783 80.259 40.4524 79.8983 40.1151C79.0518 39.2312 77.4802 38.4174 74.9002 37.766C66.5939 35.6681 64.8114 30.5532 63.2649 26.1139L63.2649 26.1138C62.269 23.2554 61.3603 20.6473 59.039 18.9839C57.0768 17.67 54.7638 16.9787 52.4023 17.0005C49.8164 16.9948 47.2542 17.4927 44.8585 18.4663C42.4742 17.4945 39.9233 16.9966 37.3485 17.0005C35.0011 16.9814 32.7028 17.673 30.7557 18.9844C28.4347 20.6472 27.5256 23.2557 26.5295 26.1144C24.9831 30.5539 23.2005 35.6686 14.8942 37.7665C12.3146 38.4179 10.7426 39.2314 9.89613 40.1156C9.53545 40.4529 9.2694 40.8787 9.12448 41.3508C8.97956 41.8229 8.96082 42.3246 9.07013 42.8062C9.30853 43.6748 9.79435 44.4554 10.4684 45.0528C11.6749 46.1358 13.0526 47.0112 14.5455 47.6434C13.1878 48.8403 12.2062 50.4052 11.7194 52.1485C11.3782 53.5895 11.6124 55.1067 12.3722 56.3777C13.1106 57.5858 14.1266 58.6002 15.3358 59.3366Z" fill="#231F20"/>
<path fill-rule="evenodd" clip-rule="evenodd" d="M36.3422 23.0788C38.7516 20.1852 50.4536 20.0826 52.8577 23.0638L67.1769 40.8238C64.1058 43.3169 58.9312 44.0199 53.792 42.2763C49.292 40.7501 45.9131 37.7196 44.5238 34.407C43.1346 37.7196 39.7551 40.7498 35.2559 42.277C30.0147 44.0548 24.7374 43.2884 21.6913 40.6742L36.3422 23.0788Z" fill="#FFFCD5"/>
<path d="M45.5242 19.3952H43.524V34.6203H45.5242V19.3952Z" fill="#231F20"/>
<path fill-rule="evenodd" clip-rule="evenodd" d="M65.0308 41.0249C65.2667 40.9085 65.539 40.89 65.7885 40.9734C66.038 41.0568 66.2444 41.2354 66.3629 41.4702C66.4814 41.7051 66.5023 41.9772 66.4211 42.2274C66.3399 42.4776 66.1632 42.6857 65.9294 42.8062C64.0794 43.7064 62.0552 44.1918 59.9981 44.2284C55.4196 44.3243 50.9596 42.769 47.4336 39.8469C46.3039 38.8993 45.323 37.7875 44.5236 36.5485C43.7244 37.7875 42.7435 38.8993 41.6136 39.8466C38.0963 42.7624 33.6488 44.3179 29.081 44.23C27.033 44.1964 25.0167 43.7191 23.171 42.8311C23.0534 42.773 22.9484 42.6923 22.8621 42.5935C22.7758 42.4947 22.7099 42.3798 22.6681 42.2555C22.6263 42.1311 22.6095 41.9997 22.6186 41.8689C22.6278 41.738 22.6627 41.6103 22.7213 41.4929C22.78 41.3756 22.8613 41.271 22.9605 41.1852C23.0597 41.0994 23.1749 41.034 23.2994 40.9928C23.424 40.9516 23.5554 40.9355 23.6863 40.9453C23.8171 40.955 23.9447 40.9906 24.0617 41.0498C25.6474 41.8075 27.3784 42.2128 29.1357 42.2378C33.2131 42.3091 37.1817 40.921 40.3257 38.3237C41.7388 37.1645 42.8608 35.6906 43.602 34.02C43.6783 33.8385 43.8065 33.6836 43.9705 33.5747C44.1345 33.4658 44.3269 33.4077 44.5238 33.4077C44.7207 33.4077 44.9132 33.4658 45.0771 33.5747C45.2411 33.6836 45.3693 33.8385 45.4456 34.02C46.1874 35.6905 47.3097 37.1643 48.7228 38.3235C51.8752 40.9271 55.8559 42.3152 59.9437 42.2362C61.7073 42.2074 63.4434 41.794 65.0308 41.0249V41.0249Z" fill="#231F20"/>
</svg>
