<svg width="90" height="90" viewBox="0 0 90 90" fill="none" xmlns="http://www.w3.org/2000/svg">
<path fill-rule="evenodd" clip-rule="evenodd" d="M37.2657 36.8612C34.034 35.9433 31.7753 36.6551 30.1309 39.197C27.7679 42.8496 27.8358 51.1112 28.6271 54.2355L24.9481 52.7801C23.7689 44.0876 23.9367 35.8276 26.4642 28.3214C34.992 19.6114 54.9629 19.6255 63.4769 28.3214C66.0041 35.8281 66.172 44.0882 64.9929 52.7801L61.3135 54.2355C62.1048 51.1112 62.1726 42.8499 59.8097 39.197C58.1649 36.6547 55.908 35.9426 52.6752 36.8612C45.1278 39.006 44.7713 38.9934 37.2657 36.8612Z" fill="#58595B"/>
<path fill-rule="evenodd" clip-rule="evenodd" d="M36.9932 37.8325C35.8409 37.4322 34.5957 37.383 33.4154 37.691L33.3721 37.7042C32.3614 38.0874 31.5147 38.8088 30.9759 39.7458C29.9788 41.6247 29.405 43.699 29.2947 45.8232C28.9896 48.5459 29.0947 51.299 29.6064 53.9906C29.6515 54.1706 29.646 54.3595 29.5907 54.5366C29.5353 54.7137 29.4322 54.8721 29.2927 54.9944C29.1531 55.1167 28.9826 55.1981 28.7998 55.2298C28.617 55.2614 28.429 55.2421 28.2564 55.1738V55.1749L24.5775 53.7195C24.3993 53.6492 24.2447 53.5296 24.1319 53.3747C24.019 53.2198 23.9525 53.0361 23.9401 52.8449C23.3359 48.6099 23.1249 44.3281 23.3097 40.0543C23.4875 35.9549 24.2272 31.8993 25.5083 28.0011C25.5567 27.8557 25.6378 27.7234 25.7455 27.6143V27.6143C25.8268 27.5315 25.9097 27.4487 25.9928 27.367C30.4767 22.9771 37.7393 20.7854 44.9756 20.7874C52.212 20.7895 59.4719 22.9849 63.9484 27.3679C64.0312 27.4488 64.1142 27.5316 64.1954 27.6146C64.3091 27.7301 64.3933 27.8713 64.4406 28.0263C65.7168 31.917 66.4539 35.9642 66.6315 40.055C66.8171 44.3522 66.6029 48.6574 65.9917 52.9149C65.9677 53.0926 65.8968 53.2607 65.7863 53.402C65.6758 53.5432 65.5296 53.6524 65.3628 53.7183L65.3637 53.7202L61.6842 55.1756C61.5083 55.2451 61.3164 55.2638 61.1304 55.2296C60.9444 55.1954 60.7717 55.1096 60.632 54.9821C60.4923 54.8546 60.3912 54.6904 60.3403 54.5082C60.2893 54.3261 60.2905 54.1333 60.3438 53.9518C60.8461 51.2723 60.9478 48.533 60.6457 45.8236C60.5355 43.6995 59.9617 41.6253 58.9646 39.7465C58.42 38.7964 57.5578 38.0687 56.5296 37.6915L56.5259 37.6903V37.6915C55.3456 37.3834 54.1003 37.4326 52.9481 37.833C49.0913 38.9288 47.0658 39.4741 44.9556 39.4723C42.8433 39.4709 40.8299 38.9225 36.9942 37.833L36.9932 37.8325ZM32.7913 35.7723C34.3496 35.3343 36.0035 35.3754 37.5382 35.8901C41.2079 36.9323 43.1268 37.4572 44.9546 37.4583C46.7851 37.4598 48.7126 36.9383 52.4021 35.8901C53.9368 35.3751 55.5909 35.334 57.1493 35.772V35.7731C58.6211 36.2863 59.8631 37.3051 60.6542 38.6481C61.8304 40.7965 62.5126 43.1801 62.6512 45.6254C62.8819 47.9566 62.8697 50.3055 62.6148 52.6342L64.0713 52.0581C64.6087 48.1155 64.7916 44.1325 64.618 40.1572C64.4515 36.3196 63.7714 32.5217 62.5959 28.8648L62.5352 28.8046C58.4502 24.8053 51.7251 22.8018 44.9756 22.8004C38.2262 22.799 31.4975 24.7985 27.4063 28.8039L27.3457 28.8641C26.1702 32.5212 25.49 36.3193 25.3233 40.1571C25.1498 44.1324 25.3327 48.1153 25.87 52.058L27.3262 52.6341C27.0714 50.3055 27.0592 47.9568 27.2898 45.6256C27.4285 43.1802 28.1107 40.7965 29.2867 38.648C30.0691 37.3228 31.2897 36.3124 32.7378 35.7914L32.7913 35.7723Z" fill="#231F20"/>
</svg>
