<svg width="90" height="90" viewBox="0 0 90 90" fill="none" xmlns="http://www.w3.org/2000/svg">
<path fill-rule="evenodd" clip-rule="evenodd" d="M45.5599 15H45.4439C43.5409 15.0001 41.7158 15.7465 40.3702 17.0749C39.0245 18.4033 38.2685 20.205 38.2684 22.0837C38.2687 22.3143 38.2798 22.542 38.3017 22.7669C37.847 21.9072 37.2183 21.1488 36.4547 20.5386C35.691 19.9285 34.8085 19.4797 33.8619 19.22C32.9154 18.9603 31.9249 18.8952 30.9518 19.0288C29.9787 19.1624 29.0438 19.4919 28.205 19.9967C27.3661 20.5015 26.6412 21.171 26.0752 21.9637C25.5091 22.7564 25.114 23.6554 24.9142 24.605C24.7145 25.5546 24.7144 26.5346 24.9139 27.4842C25.1135 28.4339 25.5084 29.3329 26.0743 30.1257C25.189 29.7226 24.2299 29.5018 23.2553 29.4767C22.2808 29.4516 21.3112 29.6228 20.4059 29.9798C19.5006 30.3368 18.6784 30.8722 17.9896 31.5532C17.3008 32.2343 16.7597 33.0467 16.3994 33.941C16.0392 34.8353 15.8672 35.7926 15.8941 36.7546C15.921 37.7167 16.1462 38.6632 16.5559 39.5365C16.9656 40.4098 17.5512 41.1915 18.277 41.834C19.0028 42.4765 19.8537 42.9663 20.7776 43.2735C19.7735 43.3286 18.7923 43.5915 17.8978 44.045C17.0032 44.4985 16.2152 45.1326 15.5849 45.9061C14.9545 46.6796 14.4958 47.5752 14.2387 48.535C13.9815 49.4947 13.9315 50.4971 14.0919 51.4771C14.2524 52.4571 14.6197 53.3929 15.1701 54.2238C15.7205 55.0546 16.4416 55.7621 17.2867 56.3001C18.1318 56.8382 19.082 57.1949 20.0758 57.3471C21.0695 57.4993 22.0846 57.4437 23.0551 57.1837C22.1872 57.8059 21.4715 58.6122 20.9608 59.5433C20.4502 60.4745 20.1574 61.5068 20.1042 62.5644C20.0509 63.6219 20.2385 64.6778 20.6531 65.6544C21.0678 66.6309 21.6989 67.5033 22.5001 68.2074C23.3012 68.9114 24.2521 69.4292 25.2827 69.7226C26.3133 70.016 27.3975 70.0776 28.4554 69.9029C29.5133 69.7282 30.5181 69.3215 31.3958 68.7129C32.2735 68.1043 33.0019 67.3092 33.5273 66.3861C34.4703 66.9314 35.4473 67.4094 36.4507 67.8181C36.4387 67.447 36.4498 67.074 36.4843 66.7011C33.1447 65.1035 30.2756 62.6307 28.1977 59.5208C25.5344 55.5348 24.3357 50.7487 24.8057 45.978C25.2757 41.2073 27.3853 36.7472 30.7752 33.3575C32.697 31.4307 34.9806 29.9026 37.4948 28.8611C40.0091 27.8196 42.7043 27.2852 45.4257 27.2886V27.2891C50.2196 27.289 54.8651 28.9511 58.5708 31.9922C62.2765 35.0333 64.8131 39.2653 65.7484 43.967C66.6837 48.6687 65.9598 53.5492 63.7 57.777C61.6149 61.6778 58.3414 64.8002 54.3688 66.7008C54.4037 67.078 54.4146 67.456 54.4019 67.8325C55.4489 67.408 56.4672 66.9081 57.4482 66.3353C57.9672 67.2647 58.6911 68.0671 59.5663 68.6832C60.4416 69.2993 61.446 69.7134 62.5051 69.895C63.5643 70.0765 64.6513 70.0207 65.6857 69.7319C66.7201 69.443 67.6756 68.9284 68.4815 68.226C69.2874 67.5237 69.9232 66.6516 70.3418 65.6741C70.7604 64.6966 70.9513 63.6388 70.9002 62.5788C70.8491 61.5187 70.5573 60.4835 70.0466 59.5497C69.5358 58.6159 68.819 57.8074 67.9492 57.1837C68.9195 57.443 69.9342 57.4982 70.9275 57.3456C71.9208 57.1931 72.8705 56.8362 73.7151 56.2981C74.5598 55.76 75.2805 55.0527 75.8305 54.2221C76.3806 53.3915 76.7477 52.4561 76.9081 51.4764C77.0685 50.4968 77.0186 49.4948 76.7616 48.5354C76.5047 47.576 76.0464 46.6806 75.4165 45.9072C74.7866 45.1339 73.9991 44.4998 73.1051 44.0461C72.211 43.5924 71.2304 43.3291 70.2268 43.2735C71.1507 42.9663 72.0016 42.4766 72.7275 41.834C73.4534 41.1915 74.039 40.4097 74.4488 39.5364C74.8585 38.6631 75.0836 37.7165 75.1105 36.7544C75.1374 35.7923 74.9655 34.8349 74.6051 33.9406C74.2448 33.0463 73.7037 32.2338 73.0148 31.5528C72.3259 30.8717 71.5037 30.3364 70.5983 29.9794C69.6929 29.6224 68.7233 29.4513 67.7487 29.4764C66.7741 29.5016 65.8149 29.7225 64.9296 30.1257C65.4955 29.3329 65.8904 28.4339 66.09 27.4842C66.2895 26.5346 66.2894 25.5546 66.0897 24.605C65.8899 23.6554 65.4948 22.7564 64.9287 21.9637C64.3627 21.171 63.6378 20.5015 62.7989 19.9967C61.9601 19.4919 61.0252 19.1624 60.0521 19.0288C59.079 18.8952 58.0885 18.9603 57.142 19.22C56.1954 19.4797 55.3129 19.9285 54.5492 20.5386C53.7856 21.1488 53.1569 21.9072 52.7022 22.7669C52.7244 22.5421 52.7355 22.3144 52.7355 22.0837C52.7354 20.205 51.9794 18.4033 50.6337 17.0748C49.288 15.7464 47.4629 15.0001 45.5599 15Z" fill="#554846"/>
<path fill-rule="evenodd" clip-rule="evenodd" d="M45.5546 14H45.4388L45.4391 14.0003C44.363 13.9993 43.2974 14.2083 42.3033 14.6152C41.3093 15.0221 40.4065 15.6189 39.6467 16.3714L39.6429 16.3752C38.6001 17.4035 37.8574 18.6906 37.4932 20.1008C35.9389 18.6861 33.8906 17.9199 31.7772 17.9626C29.6637 18.0054 27.649 18.8537 26.1545 20.3301L26.1507 20.3339C25.0893 21.3819 24.3397 22.6977 23.9836 24.1376C23.6275 25.5776 23.6786 27.0864 24.1314 28.4997L24.1416 28.5345C22.8967 28.3737 21.6311 28.4978 20.4424 28.897C19.2538 29.2963 18.1741 29.9602 17.2867 30.8372L17.2829 30.841C16.4659 31.6469 15.8308 32.6144 15.4193 33.6799C15.0078 34.7453 14.8292 35.8847 14.8952 37.0232C14.9613 38.1617 15.2704 39.2735 15.8024 40.2856C16.3344 41.2978 17.0771 42.1873 17.9819 42.8959C16.7492 43.4152 15.6641 44.2251 14.8218 45.2546C13.9794 46.2841 13.4055 47.5018 13.1501 48.8011C12.8948 50.1004 12.9659 51.4418 13.3572 52.7076C13.7485 53.9735 14.4481 55.1254 15.3947 56.0624L15.3984 56.0661C16.7566 57.4111 18.5518 58.2398 20.4679 58.4062C20.2866 58.6723 20.1218 58.9491 19.9745 59.235C19.1904 60.7573 18.9143 62.4856 19.1857 64.1724C19.4572 65.8592 20.2622 67.4179 21.4856 68.6251L21.4893 68.6289C22.3223 69.4521 23.3254 70.0881 24.43 70.4935C25.5347 70.8989 26.715 71.064 27.8902 70.9777C29.0654 70.8914 30.208 70.5557 31.2398 69.9934C32.2716 69.4312 33.1683 68.6557 33.8689 67.7198C34.7419 68.1815 35.64 68.5891 36.5578 68.9414C36.4417 68.212 36.4151 67.4663 36.4825 66.721C35.6505 66.3641 34.8385 65.9567 34.0514 65.5001C33.8171 65.3645 33.5378 65.3263 33.275 65.394C33.0121 65.4616 32.7873 65.6296 32.6498 65.8609L32.6395 65.8779L32.6374 65.8767C32.101 66.8174 31.3214 67.6007 30.3782 68.1466C29.2318 68.8043 27.9007 69.0783 26.5836 68.9278C25.2665 68.7773 24.034 68.2103 23.0699 67.3114C22.1059 66.4125 21.462 65.2299 21.2343 63.94C21.0066 62.6501 21.2073 61.3221 21.8065 60.1541C22.2474 59.2984 22.8867 58.5575 23.6723 57.9918C23.8654 57.8529 24.0032 57.6517 24.0619 57.423C24.1205 57.1943 24.0963 56.9525 23.9934 56.7396C23.8905 56.5267 23.7155 56.356 23.4985 56.2572C23.2816 56.1584 23.0365 56.1376 22.8057 56.1985L22.8047 56.1954C22.5429 56.2662 22.2766 56.3198 22.0075 56.3559C21.7371 56.39 21.4646 56.4067 21.1919 56.4057C19.5923 56.4065 18.0554 55.7909 16.9082 54.69C15.761 53.589 15.094 52.0896 15.049 50.5105C15.004 48.9314 15.5846 47.3973 16.6673 46.2344C17.75 45.0715 19.2493 44.3716 20.8465 44.2835C21.0872 44.271 21.3158 44.1751 21.4921 44.0127C21.6683 43.8504 21.781 43.6319 21.8104 43.3956C21.8397 43.1593 21.7839 42.9204 21.6526 42.7208C21.5213 42.5211 21.323 42.3735 21.0925 42.3039C19.716 41.8392 18.5511 40.9071 17.8053 39.6737C17.0595 38.4403 16.7811 36.9855 17.0196 35.5684C17.2582 34.1512 17.9982 32.8636 19.108 31.9348C20.2178 31.006 21.6254 30.4963 23.0801 30.4963C23.5256 30.4958 23.9699 30.5429 24.4051 30.6367C24.8363 30.7299 25.256 30.8692 25.6567 31.0523C25.8616 31.1456 26.092 31.1696 26.3122 31.1206C26.5323 31.0716 26.73 30.9522 26.8745 30.781C27.019 30.6098 27.1023 30.3963 27.1115 30.1736C27.1207 29.951 27.0553 29.7315 26.9254 29.5492C26.1126 28.4105 25.7213 27.0303 25.8172 25.6403C25.9131 24.2504 26.4904 22.9353 27.4521 21.916C28.4139 20.8967 29.7015 20.2353 31.0987 20.0427C32.496 19.8502 33.9178 20.1382 35.1254 20.8586C36.088 21.4353 36.8729 22.2606 37.3953 23.2456C37.5052 23.4534 37.6848 23.6171 37.9034 23.7085C38.122 23.8 38.3659 23.8137 38.5936 23.7471C38.8212 23.6806 39.0184 23.5381 39.1514 23.3438C39.2843 23.1496 39.3449 22.9158 39.3226 22.6824C39.3142 22.594 39.3069 22.4962 39.302 22.391C39.2993 22.3325 39.2976 22.2347 39.2976 22.0948C39.2967 21.2982 39.4549 20.5092 39.7632 19.773C40.0716 19.0368 40.5239 18.368 41.0943 17.8046C41.6648 17.2413 42.3421 16.7946 43.0876 16.4902C43.8331 16.1857 44.632 16.0294 45.4388 16.0303H45.555L45.5547 16.03C46.3615 16.0291 47.1604 16.1854 47.9059 16.4898C48.6514 16.7943 49.3288 17.241 49.8992 17.8043C50.4697 18.3676 50.922 19.0365 51.2303 19.7727C51.5387 20.5089 51.6969 21.2979 51.696 22.0945C51.696 22.2344 51.6943 22.3322 51.6916 22.3907C51.6868 22.4968 51.6795 22.5941 51.671 22.6821C51.6483 22.9185 51.7105 23.1552 51.8467 23.3508C51.9828 23.5464 52.1843 23.6886 52.4159 23.7523C52.6475 23.816 52.8944 23.7973 53.1134 23.6994C53.3324 23.6015 53.5096 23.4307 53.6139 23.2168C54.1365 22.2444 54.9155 21.4296 55.8685 20.8586C57.0763 20.1405 58.4974 19.8542 59.8935 20.0476C61.2896 20.241 62.576 20.9025 63.5371 21.9211C64.4981 22.9397 65.0754 24.2536 65.1722 25.6425C65.269 27.0314 64.8795 28.411 64.0688 29.55C63.9382 29.7333 63.8729 29.9542 63.8829 30.1781C63.893 30.4019 63.9779 30.6162 64.1245 30.7873C64.271 30.9585 64.4708 31.0768 64.6927 31.1238C64.9145 31.1709 65.146 31.144 65.3507 31.0473C65.7474 30.867 66.1628 30.7296 66.5894 30.6375C68.1239 30.3058 69.7288 30.567 71.0744 31.3673C72.42 32.1677 73.4041 33.4466 73.8246 34.9412C74.2452 36.4358 74.0702 38.0327 73.3356 39.4039C72.6011 40.775 71.3627 41.8164 69.8749 42.314C69.6484 42.3888 69.4555 42.5393 69.3295 42.7396C69.2035 42.9399 69.1522 43.1774 69.1846 43.411C69.217 43.6446 69.3309 43.8598 69.5068 44.0193C69.6827 44.1787 69.9094 44.2726 70.1479 44.2846C71.7451 44.3727 73.2444 45.0726 74.3271 46.2355C75.4098 47.3984 75.9904 48.9325 75.9454 50.5116C75.9005 52.0906 75.2335 53.5901 74.0863 54.691C72.9391 55.792 71.4023 56.4076 69.8026 56.4068C69.5299 56.4078 69.2575 56.3912 68.987 56.357C68.718 56.3209 68.4517 56.2673 68.1898 56.1965C67.9517 56.1336 67.6986 56.1574 67.4767 56.2635C67.2549 56.3697 67.0792 56.5511 66.9816 56.7746C66.884 56.9982 66.8711 57.2489 66.9453 57.481C67.0194 57.7132 67.1757 57.9112 67.3855 58.039C68.1424 58.5989 68.7591 59.3229 69.1881 60.1552C69.7894 61.3251 69.9906 62.6559 69.7615 63.9482C69.5324 65.2405 68.8854 66.4247 67.9174 67.3232C66.9494 68.2218 65.7125 68.7864 64.3923 68.9323C63.072 69.0783 61.7393 68.7978 60.5941 68.1328C59.6462 67.5795 58.8654 66.7858 58.3327 65.8341C58.2017 65.5986 57.9813 65.424 57.72 65.3489C57.4587 65.2738 57.1779 65.3042 56.9393 65.4335L56.911 65.4493C56.0901 65.9305 55.2418 66.3579 54.3715 66.7302C54.4379 67.474 54.411 68.2206 54.2934 68.9529C55.2498 68.5872 56.1847 68.1615 57.0923 67.6773C57.7895 68.6211 58.6853 69.4045 59.7183 69.9738C60.7513 70.5431 61.8968 70.8847 63.0762 70.9752C64.2556 71.0656 65.4409 70.9027 66.5504 70.4977C67.66 70.0926 68.6676 69.4551 69.5039 68.6289L69.5077 68.6251C70.8493 67.3017 71.6842 65.5595 71.8698 63.6958C72.0554 61.8322 71.5802 59.9627 70.5254 58.4065C72.4414 58.2399 74.2365 57.4112 75.5948 56.0664L75.5986 56.0627C76.5473 55.1267 77.2487 53.9749 77.6412 52.7086C78.0338 51.4423 78.1055 50.1002 77.85 48.8001C77.5945 47.5 77.0197 46.2818 76.176 45.2524C75.3323 44.223 74.2456 43.4139 73.0113 42.8962C73.9152 42.1871 74.6573 41.2973 75.1887 40.2852C75.7202 39.2731 76.029 38.1616 76.095 37.0234C76.161 35.8852 75.9827 34.746 75.5717 33.6806C75.1607 32.6153 74.5264 31.6477 73.7103 30.8413L73.7065 30.8376C72.8191 29.9605 71.7395 29.2967 70.5509 28.8974C69.3623 28.4981 68.0967 28.374 66.8519 28.5347L66.8629 28.4999C67.3156 27.0866 67.3667 25.5778 67.0106 24.1378C66.6545 22.6979 65.9049 21.3821 64.8435 20.3341L64.8397 20.3303C63.3459 18.8528 61.3309 18.0037 59.2171 17.961C57.1033 17.9182 55.0548 18.6851 53.501 20.101C53.1368 18.6908 52.3941 17.4037 51.3512 16.3754L51.3475 16.3716C50.5877 15.619 49.6848 15.022 48.6907 14.6151C47.6966 14.2081 46.6308 13.999 45.5546 14Z" fill="#231F20"/>
<path fill-rule="evenodd" clip-rule="evenodd" d="M44.407 25.2017C48.886 25.2017 51.2013 26.4206 55.493 27.5457C59.0366 28.4746 62.1258 30.5157 62.1258 34.1785C62.1257 35.5985 61.6699 36.981 60.8255 38.1226C59.981 39.2643 58.7925 40.1048 57.4348 40.5206C56.077 40.9364 54.6216 40.9054 53.2827 40.4324C51.9439 39.9594 50.7921 39.0691 49.9969 37.8927C49.3892 38.7915 48.5704 39.5276 47.6122 40.0365C46.654 40.5453 45.5856 40.8114 44.5006 40.8114C43.4157 40.8114 42.3473 40.5453 41.3891 40.0365C40.4308 39.5276 39.612 38.7915 39.0044 37.8927C38.2092 39.0692 37.0575 39.9595 35.7186 40.4326C34.3797 40.9057 32.9243 40.9366 31.5665 40.5208C30.2088 40.1051 29.0202 39.2645 28.1758 38.1229C27.3314 36.9812 26.8756 35.5987 26.8755 34.1787C26.8755 30.5155 30.6672 28.4287 33.5083 27.5459C37.13 26.4209 40.6136 25.2017 44.407 25.2017Z" fill="#554846"/>
<path fill-rule="evenodd" clip-rule="evenodd" d="M60.929 35.6738C60.9984 35.4189 61.1662 35.2021 61.3954 35.0709C61.6247 34.9398 61.8967 34.9051 62.1516 34.9745C62.4064 35.0439 62.6233 35.2117 62.7544 35.441C62.8856 35.6703 62.9203 35.9422 62.8509 36.1971C62.4965 37.4984 61.8032 38.6823 60.8417 39.628C59.8802 40.5738 58.685 41.2475 57.378 41.5803C56.0711 41.9132 54.6992 41.8933 53.4025 41.5227C52.1057 41.1521 50.9305 40.444 49.9969 39.4708C49.2861 40.2119 48.4327 40.8016 47.4882 41.2044C46.5436 41.6072 45.5273 41.8149 44.5005 41.8148C43.4736 41.8147 42.4573 41.6069 41.5128 41.204C40.5683 40.801 39.7151 40.2112 39.0044 39.47C38.0698 40.4413 36.8946 41.1477 35.5984 41.5172C34.3021 41.8867 32.9311 41.9062 31.6249 41.5736C30.3187 41.241 29.1239 40.5683 28.1622 39.6239C27.2005 38.6794 26.5062 37.4971 26.15 36.1971C26.1156 36.0709 26.1064 35.9392 26.123 35.8094C26.1395 35.6797 26.1815 35.5545 26.2464 35.441C26.3114 35.3274 26.398 35.2278 26.5015 35.1478C26.6049 35.0677 26.7231 35.0089 26.8493 34.9745C26.9755 34.9401 27.1072 34.931 27.2369 34.9475C27.3667 34.9641 27.4919 35.006 27.6054 35.0709C27.7189 35.1359 27.8186 35.2225 27.8986 35.326C27.9786 35.4294 28.0375 35.5476 28.0719 35.6738C28.3587 36.7108 28.9362 37.6442 29.7361 38.3638C30.536 39.0834 31.525 39.5592 32.5864 39.7352C33.6479 39.9112 34.7376 39.7799 35.7269 39.3569C36.7162 38.934 37.5639 38.2369 38.1701 37.3479C38.2598 37.2105 38.3821 37.0975 38.5261 37.0188C38.6701 36.9401 38.8313 36.8982 38.9954 36.8968C39.1594 36.8954 39.3213 36.9345 39.4666 37.0107C39.6119 37.087 39.7362 37.1979 39.8283 37.3337C40.3477 38.0983 41.0461 38.7244 41.8628 39.1573C43.0892 39.8058 44.5115 39.9799 45.8581 39.6462C47.2047 39.3125 48.3811 38.4944 49.1628 37.3482C49.2526 37.2109 49.3749 37.0978 49.5189 37.0192C49.6629 36.9405 49.824 36.8986 49.9881 36.8972C50.1522 36.8957 50.3141 36.9349 50.4594 37.0111C50.6047 37.0873 50.7289 37.1982 50.8211 37.334C51.3404 38.0986 52.0388 38.7247 52.8555 39.1576C53.6013 39.5523 54.4262 39.7745 55.2694 39.808C56.1126 39.8414 56.9525 39.6853 57.7273 39.3509C58.502 39.0166 59.1919 38.5127 59.746 37.8763C60.3001 37.2399 60.7043 36.4872 60.9289 35.6738H60.929Z" fill="#231F20"/>
</svg>
