<svg width="90" height="90" viewBox="0 0 90 90" fill="none" xmlns="http://www.w3.org/2000/svg">
<path d="M39.4544 19.3492L66.7506 28.376L62.8389 40.2044L35.5428 31.1775L39.4544 19.3492Z" fill="#37474F"/>
<path d="M35.5428 31.1775C35.064 32.6254 36.0427 34.4895 38.2636 36.3597C40.4846 38.2299 43.7658 39.9531 47.3855 41.1501C51.0052 42.3472 54.6668 42.92 57.5649 42.7426C60.463 42.5653 62.3601 41.6522 62.8389 40.2043C63.3177 38.7565 62.339 36.8924 60.1181 35.0221C57.8972 33.1519 54.6159 31.4287 50.9962 30.2317C47.3765 29.0347 43.7149 28.4618 40.8168 28.6392C37.9187 28.8166 36.0216 29.7296 35.5428 31.1775V31.1775Z" fill="#37474F"/>
<path d="M55.8342 12.8553L32.3832 15.0929C31.535 15.2161 31.204 16.217 31.8115 16.8216L49.3048 32.5995C49.7905 32.962 50.3364 33.1426 50.9425 33.1411L74.3935 30.9035C75.2417 30.7803 75.5727 29.7794 74.9652 29.1748L57.4719 13.3969C57.0163 12.9434 56.4704 12.7629 55.8342 12.8553V12.8553Z" fill="#78909C"/>
<path d="M70.4517 30.0037L53.2773 20.8922C52.8524 20.6508 52.1862 20.8342 51.9447 21.2591C51.7033 21.6839 51.8867 22.3502 52.3116 22.5916L68.8182 31.2804L64.365 44.7465C64.1844 45.2924 64.428 45.7767 64.9739 45.9572C65.5199 46.1378 66.0042 45.8942 66.1847 45.3483L70.8787 31.1543C71.0291 30.6993 70.7855 30.215 70.4517 30.0037V30.0037Z" fill="#37474F"/>
<path d="M63.4551 44.4456C63.376 44.6846 63.3448 44.9368 63.3632 45.1879C63.3816 45.4389 63.4493 45.6839 63.5624 45.9088C63.6755 46.1337 63.8318 46.3341 64.0223 46.4986C64.2129 46.6631 64.434 46.7884 64.673 46.8674C64.9119 46.9465 65.1642 46.9777 65.4152 46.9592C65.6663 46.9408 65.9112 46.873 66.1361 46.7599C66.361 46.6468 66.5614 46.4905 66.7258 46.2999C66.8903 46.1093 67.0156 45.8882 67.0946 45.6492C67.1736 45.4102 67.2049 45.158 67.1865 44.907C67.1681 44.6559 67.1004 44.4109 66.9873 44.1861C66.8742 43.9612 66.7179 43.7607 66.5273 43.5963C66.3368 43.4318 66.1157 43.3064 65.8767 43.2274C65.6377 43.1484 65.3855 43.1172 65.1345 43.1356C64.8834 43.1541 64.6384 43.2218 64.4136 43.3349C64.1887 43.4481 63.9883 43.6044 63.8239 43.7949C63.6594 43.9855 63.5341 44.2066 63.4551 44.4456Z" fill="#37474F"/>
<path d="M67.1018 48.6797C66.5902 50.2265 62.5668 53.2362 62.5668 53.2362C62.5668 53.2362 61.131 48.4211 61.6425 46.8743C62.1541 45.3275 63.7281 44.5359 65.2748 45.0474C66.8216 45.5589 67.6133 47.1329 67.1018 48.6797Z" fill="#37474F"/>
</svg>
