<svg width="90" height="90" viewBox="0 0 90 90" fill="none" xmlns="http://www.w3.org/2000/svg">
<path d="M65.2686 29.1232C64.6844 26.2397 63.8636 23.5789 62.8285 21.2114C61.5223 18.2203 59.8687 15.6903 57.9124 13.6914C54.217 9.91489 49.4447 8 43.73 8C38.0155 8 33.2446 9.91479 29.5477 13.6914C27.593 15.6902 25.9378 18.2203 24.6316 21.2114C23.5966 23.5789 22.7757 26.2397 22.1915 29.1232C21.1984 34.0169 21.2284 37.8193 21.2314 37.9782L21.2418 39H66.2183L66.2303 37.9782C66.2318 37.8193 66.2617 34.0169 65.2686 29.1232Z" fill="#4FC0E8"/>
<path opacity="0.2" d="M65.331 29.1232C64.7846 26.2397 64.0169 23.5789 63.0488 21.2114C61.8273 18.2203 60.2807 15.6903 58.4512 13.6914C54.9952 9.91489 50.5319 8 45.1875 8C44.8653 8 44.5473 8.00756 44.2307 8.02122C49.1535 8.23764 53.2903 10.1427 56.5389 13.6914C58.3672 15.6902 59.9152 18.2203 61.1367 21.2114C62.1047 23.5789 62.8723 26.2397 63.4187 29.1232C64.3475 34.0169 64.3181 37.8193 64.3167 37.9782L64.3069 39H66.2191L66.2303 37.9782C66.2317 37.8193 66.2597 34.0169 65.331 29.1232Z" fill="white"/>
<path d="M70.2307 35.5815C70.2307 35.002 69.7616 34.5329 69.1837 34.5329H21.0469C20.469 34.5329 20 35.0019 20 35.5815V43.9514C20 44.5308 20.4691 45 21.0469 45H69.1837C69.7616 45 70.2307 44.5309 70.2307 43.9514V35.5815V35.5815Z" fill="#E5E8EC"/>
<path d="M50.3442 5.23263C50.3442 8.12219 48.002 10.4653 45.1123 10.4653C42.2228 10.4653 39.8805 8.12219 39.8805 5.23263C39.8805 2.34308 42.2228 0 45.1123 0C48.002 0 50.3442 2.34308 50.3442 5.23263Z" fill="#E5E8EC"/>
<path d="M28.3712 39.7664C27.7933 39.7664 27.3257 40.2355 27.3257 40.8117V44.9323H29.4181V40.8117C29.4182 40.2355 28.9492 39.7664 28.3712 39.7664Z" fill="#CBD0D8"/>
<path d="M36.7441 39.7664C36.1662 39.7664 35.6971 40.2355 35.6971 40.8117V44.9323H37.7896V40.8117C37.7895 40.2355 37.3219 39.7664 36.7441 39.7664Z" fill="#CBD0D8"/>
<path d="M45.1154 39.7664C44.5375 39.7664 44.0684 40.2355 44.0684 40.8117V44.9323H46.1624V40.8117C46.1624 40.2355 45.6933 39.7664 45.1154 39.7664Z" fill="#CBD0D8"/>
<path d="M53.4866 39.7664C52.9087 39.7664 52.4412 40.2355 52.4412 40.8117V44.9323H54.5337V40.8117C54.5337 40.2355 54.0646 39.7664 53.4866 39.7664Z" fill="#CBD0D8"/>
<path d="M61.8595 39.7664C61.2816 39.7664 60.8126 40.2355 60.8126 40.8117V44.9323H62.905V40.8117C62.905 40.2355 62.4375 39.7664 61.8595 39.7664Z" fill="#CBD0D8"/>
</svg>
