<svg width="90" height="90" viewBox="0 0 90 90" fill="none" xmlns="http://www.w3.org/2000/svg">
<path d="M56.327 21.546C52.6062 21.5302 48.5447 21.546 44.288 21.546C40.0322 21.546 35.9696 21.5302 32.2489 21.546L12 22.8921V24.238C12 27.2099 18.6668 35 44.288 35C69.9091 35 76.5759 27.2097 76.5759 24.238V23.0202L56.327 21.546Z" fill="#602B2B"/>
<path d="M76.5759 22.8921C76.5759 25.8638 69.9091 33.654 44.288 33.654C18.6668 33.654 12 25.8637 12 22.8921C12 19.9202 26.4561 20.2021 44.288 20.2021C62.1189 20.2021 76.5759 19.9202 76.5759 22.8921Z" fill="#602B2B"/>
<path d="M77 23.6051C77 26.4755 70.2894 34 44.5 34C18.7106 34 12 26.4754 12 23.6051C12 20.7346 26.551 21.0069 44.5 21.0069C62.4481 21.0069 77 20.7346 77 23.6051Z" fill="#6D3B3B"/>
<path d="M67 22.2531C67 22.2531 58.6112 26 44.5228 26C30.4353 26 22 22.2531 22 22.2531C22 22.2531 28.4447 1.07985 30.4101 1.07985C32.3756 1.07985 43.2393 4.76742 44.4994 4.76742C45.7587 4.76742 57.317 0.358047 58.6344 1.07985C59.9537 1.80247 67 22.2531 67 22.2531Z" fill="#7F4545"/>
<path d="M44.5226 23.9071C32.7832 23.9071 24.9708 21.7267 22.6916 21C22.2596 22.1438 22 22.8599 22 22.8599C22 22.8599 30.4353 26 44.5228 26C58.6112 26 67 22.8599 67 22.8599C67 22.8599 66.7094 22.1545 66.2347 21.023C63.8731 21.7743 56.1353 23.9071 44.5226 23.9071Z" fill="#EC5564"/>
<g opacity="0.1">
<path d="M29.9403 2.77698C31.9396 2.77698 42.9903 6.74894 44.2722 6.74894C45.5532 6.74894 57.3104 1.99965 58.6505 2.77698C59.7204 3.39679 64.4898 17.5169 66.3816 23.2231C66.8939 23.0182 67.1601 22.892 67.1601 22.892C67.1601 22.892 59.9925 0.864352 58.6505 0.0860047C57.3104 -0.691459 45.5532 4.05796 44.2722 4.05796C42.9902 4.05796 31.9396 0.0860047 29.9403 0.0860047C27.941 0.0860047 21.3854 22.892 21.3854 22.892C21.3854 22.892 21.6248 23.0044 22.089 23.1916C23.835 17.3414 28.342 2.77698 29.9403 2.77698Z" fill="white"/>
</g>
</svg>
