<svg width="90" height="90" viewBox="0 0 90 90" fill="none" xmlns="http://www.w3.org/2000/svg">
<path d="M56.2434 11.9103C55.882 7.94074 52.6611 5 48.6747 5C48.0391 5 47.3529 5.30004 47.0925 5.88128C46.5509 7.08929 45.6885 7.97046 44.7142 7.97046C43.7408 7.97046 42.8775 7.08918 42.3369 5.88128C42.0764 5.30004 41.3903 5 40.7537 5C36.7683 5 33.5474 7.94074 33.186 11.9103L31.8424 24.3277C40.3131 26.2823 49.1164 26.2823 57.5861 24.3277L56.2434 11.9103Z" fill="#35495E"/>
<path d="M32.434 18.8624L31.8429 24.328C33.9608 24.8162 36.0986 25.1825 38.2472 25.4271C42.5445 25.9153 46.8842 25.9153 51.1825 25.4271C53.3301 25.1826 55.4689 24.8162 57.5868 24.328L56.9957 18.8624H32.434Z" fill="#F0C419"/>
<path d="M57.2742 21.4403L57.5861 24.3276C49.1164 26.2821 40.3131 26.2821 31.8424 24.3276L32.1553 21.4403C22.5914 22.4047 16 24.4336 16 26.7832C16 30.0646 28.856 32.7241 44.7142 32.7241C60.5733 32.7241 73.4284 30.0646 73.4284 26.7832C73.4284 24.4336 66.838 22.4047 57.2742 21.4403Z" fill="#2C3E50"/>
<path d="M44.7147 23.8123C44.1681 23.8123 43.7245 23.3697 43.7245 22.8221V21.8329C43.7245 21.2853 44.1681 20.8427 44.7147 20.8427C45.2612 20.8427 45.7048 21.2853 45.7048 21.8329V22.8221C45.7047 23.3697 45.2611 23.8123 44.7147 23.8123Z" fill="white"/>
</svg>
