<svg width="90" height="90" viewBox="0 0 90 90" fill="none" xmlns="http://www.w3.org/2000/svg">
<g clip-path="url(#clip0_13_549)">
<path d="M26.7308 30.6973C23.7255 32.7873 21.9817 34.7292 22.6048 36.1968C23.7472 38.8871 31.9969 38.8411 40.6383 35.1718C49.2804 31.5022 55.0427 25.5983 53.9003 22.908C53.2731 21.4308 50.8219 21.2047 47.1908 21.9327L37.9099 8.03274L20.2527 5.80338L18.2092 21.7046L24.4971 13.7281L24.4949 13.7266L27.2599 16.0921L26.7308 30.6973Z" fill="#2F3750"/>
<path d="M47.1547 21.5406C50.7281 20.8689 53.1554 21.1536 53.8074 22.689C54.9943 25.4842 49.4256 31.4405 40.9624 35.0342C39.5765 35.6227 38.1989 36.1101 36.8586 36.5036C43.056 32.9743 46.7887 28.428 45.7962 26.0908C45.6949 25.8522 45.8561 26.2318 45.5537 25.5196C47.2541 23.957 47.3169 22.2493 47.1547 21.5406Z" fill="#262C42"/>
<path d="M26.9421 30.9951C26.8773 30.513 27.3133 15.8423 27.3133 15.8423L28.0181 15.6839L30.301 31.9563C29.761 32.0009 27.0958 32.1312 26.9421 30.9951Z" fill="#424A66"/>
<path d="M26.2108 35.4966C25.9491 34.3971 28.8049 32.2805 30.4332 31.606L27.5304 30.96C24.1647 32.5231 22.1055 34.1371 22.4211 35.6787C22.6454 36.7721 23.9808 37.6498 26.0764 38.2123C27.5637 38.3592 29.3994 38.2865 31.4592 37.983C28.4347 37.58 26.4902 36.6736 26.2108 35.4966Z" fill="#424A66"/>
<path d="M24.0882 14.1085L22.7041 12.9399L22.1392 12.6072L17.7036 22.0956L24.0902 14.1093L24.0882 14.1085Z" fill="#262C42"/>
<path d="M45.4009 18.2429L38.3448 7.76914L20.5158 5.69163L23.5948 6.64139L35.3786 10.2884L42.9465 21.1547C43.6295 20.6087 45.053 19.1914 45.4009 18.2429Z" fill="#262C42"/>
<path d="M41.3841 28.3366C45.0781 26.2396 47.6236 23.7977 48.1346 22.1222L45.3501 17.9612C44.3347 19.6936 42.1429 22.0123 39.1044 23.8827" fill="#674172"/>
<path d="M45.3699 25.5577C47.6161 23.9482 47.6968 23.2119 48.0816 21.9975L45.3542 17.9595C44.5833 19.2422 44.0972 19.7737 42.351 21.2945L44.7678 24.7177L45.3699 25.5577Z" fill="#4F3058"/>
<path d="M35.1794 30.9713C31.1204 32.1761 27.6259 32.3485 26.0842 31.598L26.4995 27.052C28.3989 27.2289 30.934 27.0675 33.6396 26.3643" fill="#674172"/>
<path d="M26.9822 26.8471L26.9116 29.6317C26.9054 30.3741 26.9072 30.8593 26.9191 30.9409C27.0843 32.1043 29.7588 31.9968 30.3014 31.9562L29.5785 27.0345C28.6323 27.0404 27.7525 26.9748 26.9822 26.8471Z" fill="#785083"/>
<path d="M41.78 27.6253C42.1036 28.3874 41.7065 29.2861 40.8935 29.6313L36.4753 31.5074C35.6624 31.8526 34.74 31.5142 34.4163 30.7521L33.2438 27.9907C32.9202 27.2286 33.3173 26.3299 34.1303 25.9847L38.5484 24.1086C39.3614 23.7634 40.2838 24.1018 40.6074 24.8639L41.78 27.6253Z" fill="#F4D08C"/>
<path d="M35.797 30.1658L34.6245 27.4044C34.3009 26.6423 34.6568 25.7611 35.4189 25.4375L34.0382 26.0237C33.2761 26.3474 32.9202 27.2286 33.2438 27.9907L34.4163 30.7521C34.74 31.5142 35.6212 31.8701 36.3833 31.5465L37.764 30.9602C37.0018 31.2838 36.1206 30.9279 35.797 30.1658Z" fill="#FEDA96"/>
<path d="M38.5484 24.1086L36.3394 25.0466C37.1523 24.7014 38.0747 25.0398 38.3984 25.802L39.5709 28.5633C39.8945 29.3255 39.4974 30.2242 38.6844 30.5694L40.8935 29.6313C41.7065 29.2861 42.1036 28.3874 41.78 27.6253L40.6074 24.8639C40.2838 24.1018 39.3614 23.7634 38.5484 24.1086Z" fill="#D7AF75"/>
<path d="M47.733 21.1393L38.596 7.45812C38.4738 7.27619 38.2799 7.15591 38.0632 7.12815L20.1496 4.87127C19.7406 4.81935 19.3649 5.10932 19.3125 5.52043L17.2365 21.6462C17.1933 21.9829 17.379 22.3068 17.6908 22.4394C18.0027 22.5719 18.363 22.4804 18.5728 22.215L24.4709 14.7366L26.4015 16.3878L25.8925 30.3395C22.394 32.8136 20.9955 34.9653 21.7467 36.7342C23.1928 40.14 32.2035 39.8398 41.0295 36.0921C49.8559 32.3451 56.3295 26.0702 54.8834 22.6644C54.1502 20.9379 51.7441 20.428 47.733 21.1393ZM27.3699 31.0888L27.4902 27.7882C29.0733 27.9191 30.8189 27.8136 32.5572 27.489C32.5808 27.7062 32.6249 27.9254 32.7152 28.1381L33.85 30.8106C30.8661 31.5222 28.5819 31.4897 27.3699 31.0888ZM35.2792 30.3309L34.0986 27.5507C33.9357 27.167 34.1134 26.724 34.4952 26.5619L38.6454 24.7996C39.0272 24.6375 39.4693 24.8173 39.6322 25.201L40.8127 27.9812C40.9757 28.3649 40.798 28.8078 40.4162 28.97L36.266 30.7322C35.8842 30.8944 35.4421 30.7146 35.2792 30.3309ZM40.6724 24.0669C42.4493 22.8103 43.9828 21.3092 45.0413 19.8146L46.9597 22.6884C46.4481 23.8524 44.8522 25.5834 42.1551 27.2972L41.0156 24.6136C40.9285 24.4085 40.8074 24.231 40.6724 24.0669ZM27.6523 15.4784L23.4485 11.8827C23.1311 11.6121 22.6578 11.6491 22.3883 11.9661C22.1195 12.2829 22.1585 12.7594 22.4752 13.0302L23.3235 13.7553L19.0762 19.1398L20.7087 6.46087L37.5395 8.58273L44.1368 18.4611C43.2617 19.8418 41.5892 21.6808 39.1705 23.2542C38.8022 23.2137 38.4196 23.2547 38.0551 23.4095L33.9049 25.1718C33.5487 25.323 33.261 25.5625 33.0353 25.8462C30.6694 26.3849 28.7531 26.3806 27.5459 26.2755L27.9179 16.0827C27.9251 15.8516 27.8283 15.6293 27.6523 15.4784ZM40.4389 34.703C31.6301 38.4434 23.985 38.1621 23.1297 36.1478C22.7557 35.2672 23.8383 33.7828 26.0491 32.0967C26.0938 32.1384 26.1338 32.1846 26.1899 32.2166C27.8804 33.1543 31.2429 33.094 35.0122 32.0727C35.575 32.3407 36.24 32.384 36.8563 32.1223L41.0065 30.3601C41.6179 30.1004 42.0473 29.5965 42.2473 29.012C45.6367 27.0001 48.0415 24.6074 48.5448 22.7242C48.5625 22.6601 48.5568 22.5968 48.5564 22.5322C51.3062 22.1136 53.1243 22.367 53.5 23.2519C54.3553 25.2661 49.2476 30.9626 40.4389 34.703Z" fill="#272223"/>
<path d="M38.962 26.1059L36.2006 27.2784L36.9823 29.1193L39.7437 27.9468L38.962 26.1059Z" fill="#272223"/>
</g>
<defs>
<clipPath id="clip0_13_549">
<rect width="90" height="90" fill="white"/>
</clipPath>
</defs>
</svg>
