<svg width="90" height="90" viewBox="0 0 90 90" fill="none" xmlns="http://www.w3.org/2000/svg">
<path fill-rule="evenodd" clip-rule="evenodd" d="M65.7245 34.4753C66.8584 34.4753 67.7898 36.0975 67.8935 38.1699C69.4323 36.7775 71.2383 36.2891 72.04 37.091C72.8416 37.8928 72.3533 39.6985 70.961 41.2374C73.0335 41.3411 74.6556 42.2725 74.6556 43.4064C74.6556 44.5404 73.0335 45.4718 70.961 45.5755C72.3531 47.1143 72.8416 48.9201 72.0397 49.7216C71.2378 50.5232 69.4321 50.0349 67.8935 48.643C67.7898 50.7155 66.8584 52.3379 65.7245 52.3379C64.5906 52.3379 63.6591 50.7155 63.5553 48.643C62.0167 50.0351 60.2109 50.5235 59.4093 49.7216C58.6077 48.9198 59.096 47.1141 60.4879 45.5755C58.4154 45.4718 56.793 44.5404 56.793 43.4064C56.793 42.2725 58.4154 41.3411 60.4879 41.2374C59.0956 39.6983 58.607 37.8925 59.409 37.091C60.211 36.2894 62.0166 36.7776 63.5553 38.1699C63.6591 36.098 64.5905 34.4753 65.7245 34.4753V34.4753ZM65.3847 44.2277C65.6064 44.1617 65.8425 44.1617 66.0642 44.2277C66.1743 44.0241 66.3414 43.857 66.545 43.7467C66.4789 43.5248 66.4789 43.2885 66.545 43.0666C66.3417 42.9565 66.1749 42.7897 66.0648 42.5865C65.8427 42.6525 65.6062 42.6525 65.3841 42.5865C65.2739 42.7898 65.107 42.9567 64.9036 43.0669C64.9698 43.2887 64.9698 43.5249 64.9036 43.7467C65.1073 43.8569 65.2745 44.024 65.3847 44.2277V44.2277Z" fill="white"/>
<path fill-rule="evenodd" clip-rule="evenodd" d="M65.7245 33.4645C66.2175 33.4929 66.694 33.6527 67.1044 33.9274C67.5149 34.2021 67.8443 34.5817 68.0585 35.0267C68.3059 35.4585 68.4968 35.9202 68.6267 36.4005C69.0585 36.1521 69.5204 35.9601 70.0012 35.8295C70.4628 35.638 70.9709 35.5877 71.4611 35.6851C71.9513 35.7825 72.4015 36.0231 72.7549 36.3765C73.1083 36.7299 73.3489 37.1802 73.4463 37.6704C73.5436 38.1605 73.4933 38.6686 73.3018 39.1302C73.1712 39.6108 72.9793 40.0726 72.7309 40.5042C73.2112 40.634 73.6729 40.825 74.1046 41.0724C74.5668 41.263 74.9621 41.5866 75.2402 42.0021C75.5183 42.4177 75.6668 42.9064 75.6668 43.4064C75.6668 43.9065 75.5183 44.3952 75.2402 44.8107C74.9621 45.2263 74.5668 45.5499 74.1046 45.7405C73.6729 45.9879 73.2112 46.1789 72.7309 46.3086C72.9792 46.7405 73.171 47.2024 73.3016 47.6832C73.4636 48.1487 73.4984 48.649 73.4022 49.1325C73.306 49.6159 73.0825 50.0649 72.7546 50.4329L72.7526 50.4347L72.7509 50.4367L72.7457 50.4418C72.3775 50.7676 71.9292 50.9895 71.4469 51.0847C70.9646 51.1799 70.4656 51.145 70.0012 50.9836C69.5204 50.8531 69.0585 50.6613 68.6267 50.4128C68.4969 50.8935 68.3059 51.3554 68.0585 51.7874C67.8679 52.2497 67.5443 52.6449 67.1288 52.9231C66.7132 53.2012 66.2245 53.3497 65.7244 53.3497C65.2244 53.3497 64.7356 53.2012 64.3201 52.9231C63.9045 52.6449 63.581 52.2497 63.3904 51.7874C63.1429 51.3554 62.952 50.8935 62.8223 50.4128C62.3906 50.6612 61.9288 50.853 61.4483 50.9836C60.9827 51.1455 60.4824 51.1802 59.999 51.0841C59.5156 50.988 59.0666 50.7645 58.6985 50.4367L58.6968 50.4347L58.6947 50.4329L58.6896 50.4278C58.3639 50.0595 58.142 49.6112 58.0468 49.1289C57.9516 48.6465 57.9865 48.1476 58.1479 47.6832C58.2783 47.2024 58.4701 46.7404 58.7185 46.3086C58.2381 46.1788 57.7763 45.9879 57.3445 45.7405C56.8822 45.5499 56.487 45.2263 56.2089 44.8107C55.9308 44.3952 55.7823 43.9065 55.7823 43.4064C55.7823 42.9064 55.9308 42.4177 56.2089 42.0021C56.487 41.5866 56.8822 41.263 57.3445 41.0724C57.7762 40.8249 58.238 40.634 58.7185 40.5042C58.4701 40.0724 58.2782 39.6105 58.1475 39.1297C57.956 38.6681 57.9058 38.1601 58.0032 37.6699C58.1005 37.1797 58.3412 36.7294 58.6946 36.3761C59.0479 36.0227 59.4982 35.7821 59.9884 35.6848C60.4786 35.5875 60.9867 35.6378 61.4483 35.8293C61.9288 35.96 62.3906 36.1519 62.8223 36.4003C62.952 35.92 63.143 35.4582 63.3904 35.0265C63.6046 34.5815 63.934 34.2019 64.3445 33.9272C64.7549 33.6525 65.2314 33.4927 65.7245 33.4643V33.4645ZM66.3208 36.0455C66.1168 35.698 65.9037 35.486 65.7245 35.486C65.5453 35.486 65.3316 35.6982 65.1282 36.0455C64.7733 36.7155 64.5795 37.4591 64.5622 38.2172H64.5608C64.5519 38.4077 64.489 38.5918 64.3794 38.748C64.2699 38.9042 64.1182 39.026 63.942 39.0993C63.7659 39.1726 63.5726 39.1943 63.3846 39.1619C63.1965 39.1295 63.0216 39.0443 62.8802 38.9163C62.3316 38.3918 61.6682 38.0026 60.9428 37.7795C60.5515 37.6779 60.2501 37.6785 60.1234 37.8051C59.9968 37.9317 59.9966 38.2331 60.098 38.6238C60.3151 39.334 60.6928 39.9847 61.2018 40.5255C61.3397 40.6637 61.4345 40.839 61.4746 41.0301C61.5147 41.2211 61.4984 41.4197 61.4277 41.6017C61.3571 41.7837 61.2351 41.9413 61.0766 42.0552C60.918 42.1692 60.7298 42.2347 60.5348 42.2436C59.7767 42.2608 59.033 42.4544 58.3628 42.8091C58.0157 43.0132 57.8033 43.2263 57.8033 43.4054C57.8033 43.5845 58.0156 43.7982 58.3628 44.0017C59.033 44.3565 59.7767 44.5501 60.5348 44.5672V44.5686C60.7253 44.5776 60.9094 44.6405 61.0655 44.7501C61.2217 44.8596 61.3435 45.0113 61.4167 45.1875C61.49 45.3636 61.5117 45.5569 61.4793 45.7449C61.4469 45.9329 61.3618 46.1078 61.2338 46.2492C60.7095 46.7977 60.3205 47.4611 60.0979 48.1865C59.9959 48.5793 59.995 48.8809 60.1196 49.0051L60.1233 49.0088C60.2477 49.1334 60.5496 49.1326 60.942 49.0306C61.6524 48.8144 62.3034 48.4375 62.8446 47.9291C62.9828 47.7912 63.1581 47.6964 63.3492 47.6562C63.5403 47.6161 63.7389 47.6324 63.9209 47.703C64.103 47.7737 64.2605 47.8957 64.3745 48.0543C64.4884 48.2128 64.5538 48.4011 64.5628 48.5961C64.5801 49.3542 64.7739 50.0979 65.1288 50.768C65.3327 51.1153 65.5459 51.3275 65.7251 51.3275C65.9043 51.3275 66.1178 51.1153 66.3214 50.768C66.6763 50.0979 66.8701 49.3542 66.8874 48.5961H66.8888C66.8977 48.4056 66.9606 48.2214 67.0701 48.0653C67.1797 47.9091 67.3314 47.7872 67.5075 47.714C67.6837 47.6407 67.877 47.619 68.065 47.6514C68.253 47.6838 68.4279 47.769 68.5694 47.897C69.1179 48.4214 69.7813 48.8104 70.5067 49.033C70.8994 49.135 71.2014 49.1358 71.3253 49.0112L71.329 49.0076C71.4537 48.8832 71.4529 48.5813 71.3508 48.1889C71.1339 47.4788 70.7562 46.8281 70.2472 46.2875C70.1093 46.1493 70.0146 45.974 69.9745 45.7829C69.9344 45.5918 69.9507 45.3932 70.0213 45.2112C70.092 45.0292 70.214 44.8717 70.3725 44.7577C70.531 44.6438 70.7192 44.5783 70.9143 44.5693C71.6722 44.5522 72.4158 44.3586 73.0858 44.0039C73.4334 43.7998 73.6453 43.5866 73.6453 43.4075C73.6453 43.2285 73.4331 43.0148 73.0858 42.8112C72.4158 42.4565 71.6722 42.2629 70.9143 42.2458V42.2427C70.7237 42.2338 70.5396 42.1709 70.3835 42.0613C70.2273 41.9518 70.1055 41.8001 70.0322 41.6239C69.959 41.4478 69.9373 41.2545 69.9696 41.0665C70.002 40.8785 70.0872 40.7036 70.2152 40.5622C70.7394 40.0136 71.1285 39.3502 71.3514 38.6249C71.4532 38.2335 71.4525 37.9318 71.3259 37.8055C71.1994 37.6792 70.8976 37.6786 70.5066 37.7799C69.7971 37.9971 69.147 38.3744 68.6065 38.8827C68.4683 39.0207 68.2931 39.1157 68.102 39.156C67.9109 39.1963 67.7123 39.1802 67.5302 39.1097C67.3481 39.0392 67.1904 38.9173 67.0762 38.7589C66.9621 38.6004 66.8964 38.4122 66.8873 38.2172C66.87 37.4591 66.6762 36.7155 66.3213 36.0455H66.3208ZM65.696 45.189L65.7241 45.1885L65.7521 45.189L65.7836 45.1944C66.0049 45.2584 66.2414 45.2446 66.4538 45.1554C66.6661 45.0662 66.8415 44.907 66.9508 44.7043L66.9523 44.7051L66.9668 44.6849L66.9815 44.6646V44.664L66.9835 44.6661C66.9987 44.6509 66.9936 44.6526 66.9987 44.6489L67.0258 44.6305C67.2273 44.5205 67.3853 44.3451 67.4735 44.1331C67.5617 43.9212 67.5749 43.6855 67.511 43.4651L67.5058 43.4318L67.5049 43.4063L67.5055 43.3774L67.511 43.3501C67.5764 43.1269 67.5627 42.8879 67.4722 42.6736C67.3816 42.4593 67.2199 42.2828 67.0142 42.1741L66.9993 42.164L66.9832 42.1462C66.978 42.1406 66.9722 42.1356 66.966 42.131L66.948 42.1042C66.8379 41.902 66.662 41.7437 66.4494 41.6554C66.2369 41.5672 66.0005 41.5543 65.7797 41.619V41.6182L65.7525 41.6237L65.7236 41.6242L65.6946 41.6237L65.6674 41.6182C65.4442 41.553 65.2053 41.5668 64.9911 41.6574C64.777 41.748 64.6007 41.9098 64.492 42.1154L64.4819 42.1305L64.4644 42.1463C64.4493 42.1615 64.4543 42.1598 64.4493 42.1635L64.422 42.1819C64.2199 42.292 64.0616 42.4679 63.9733 42.6804C63.8851 42.893 63.8722 43.1293 63.9369 43.3501H63.9361L63.9414 43.3771L63.942 43.406L63.9414 43.4341L63.9361 43.4657C63.8721 43.6869 63.8859 43.9234 63.9751 44.1358C64.0642 44.3482 64.2235 44.5236 64.4262 44.6328L64.4253 44.6342L64.4455 44.6489L64.4658 44.6634L64.4681 44.6658L64.4812 44.6806L64.4832 44.6832L64.4812 44.6847L64.4958 44.7049C64.6065 44.9105 64.7851 45.0714 65.0011 45.1601C65.2171 45.2488 65.4572 45.2599 65.6805 45.1914L65.696 45.189Z" fill="#231F20"/>
<path fill-rule="evenodd" clip-rule="evenodd" d="M64.0837 37.0892L69.2008 48.8769L67.3533 49.6743L62.2362 37.8867L64.0837 37.0892Z" fill="#231F20"/>
<path fill-rule="evenodd" clip-rule="evenodd" d="M68.7955 38.1242L64.4748 48.9638L62.6041 48.222L66.9248 37.3823L68.7955 38.1242Z" fill="#231F20"/>
<path d="M70.77 40.3089L60.1196 44.7433L60.8951 46.606L71.5456 42.1716L70.77 40.3089Z" fill="#231F20"/>
<path d="M60.9473 40.2022L60.143 42.0508L70.945 46.7505L71.7493 44.9019L60.9473 40.2022Z" fill="#231F20"/>
<path fill-rule="evenodd" clip-rule="evenodd" d="M65.7245 40.943C66.2117 40.943 66.688 41.0876 67.093 41.3583C67.4981 41.629 67.8139 42.0138 68.0003 42.4639C68.1867 42.9141 68.2354 43.4094 68.1403 43.8872C68.0452 44.3651 67.8106 44.804 67.466 45.1485C67.1215 45.493 66.6825 45.7276 66.2047 45.8226C65.7268 45.9176 65.2315 45.8688 64.7813 45.6823C64.3312 45.4958 63.9465 45.18 63.6759 44.7749C63.4052 44.3698 63.2608 43.8935 63.2608 43.4062C63.2609 42.7529 63.5206 42.1264 63.9826 41.6645C64.4446 41.2025 65.0711 40.943 65.7245 40.943V40.943Z" fill="#FFF200"/>
<path fill-rule="evenodd" clip-rule="evenodd" d="M65.7245 39.9323C66.5286 39.932 67.3079 40.2105 67.9297 40.7203C68.5515 41.2302 68.9772 41.9399 69.1343 42.7285C69.2915 43.5171 69.1703 44.3358 68.7915 45.0451C68.4126 45.7543 67.7995 46.3103 67.0567 46.6182C66.3139 46.9261 65.4873 46.9668 64.7178 46.7336C63.9482 46.5003 63.2834 46.0074 62.8366 45.3388C62.3898 44.6703 62.1886 43.8675 62.2674 43.0673C62.3461 42.267 62.6999 41.5189 63.2685 40.9503C63.5907 40.6272 63.9735 40.371 64.3949 40.1963C64.8164 40.0216 65.2682 39.9319 65.7245 39.9323V39.9323ZM66.7518 42.3793C66.5142 42.1416 66.2014 41.9936 65.8669 41.9606C65.5324 41.9277 65.1968 42.0117 64.9173 42.1984C64.6378 42.3851 64.4317 42.663 64.3341 42.9847C64.2365 43.3063 64.2535 43.6519 64.3821 43.9624C64.5107 44.273 64.743 44.5294 65.0395 44.6878C65.336 44.8463 65.6782 44.897 66.0079 44.8314C66.3375 44.7658 66.6343 44.588 66.8475 44.3281C67.0607 44.0683 67.1773 43.7425 67.1772 43.4064C67.1774 43.2156 67.1399 43.0267 67.0669 42.8505C66.9939 42.6742 66.8868 42.5141 66.7518 42.3794V42.3793Z" fill="#231F20"/>
</svg>
