<svg width="90" height="90" viewBox="0 0 90 90" fill="none" xmlns="http://www.w3.org/2000/svg">
<path d="M62.1454 34.9985C62.1454 34.9985 63.125 17 45.5 17C27.875 17 28.8532 34.9985 28.8532 34.9985L22 42.999C22 42.999 28.5104 45 45.5 45C62.4896 45 69 42.999 69 42.999L62.1454 34.9985Z" fill="#AC92EA"/>
<path d="M62.1454 35C62.1454 35 55.2907 37.0006 45.5 37.0006C35.7079 37.0006 28.8532 35 28.8532 35L22 42.9993C22 42.9993 28.5104 45 45.5 45C62.4896 45 69 42.9993 69 42.9993L62.1454 35Z" fill="#967ADA"/>
<path d="M56.4999 38C55.1208 38 54 37.3275 54 36.5011C54 35.6726 55.1209 35 56.4999 35C57.8791 35 59 35.6725 59 36.5011C59 37.3276 57.8791 38 56.4999 38Z" fill="#D670AC"/>
<path d="M56.4999 32C54.5671 32 53 33.5654 53 35.4999C53 37.4311 54.5671 39 56.4999 39C58.4328 39 60 37.4311 60 35.4999C60 33.5653 58.4328 32 56.4999 32ZM56.4999 36.6655C55.8574 36.6655 55.3327 36.1426 55.3327 35.4999C55.3327 34.8556 55.8574 34.331 56.4999 34.331C57.1442 34.331 57.6672 34.8556 57.6672 35.4999C57.6672 36.1426 57.1442 36.6655 56.4999 36.6655Z" fill="#EB87BF"/>
<g opacity="0.2">
<path d="M23.7601 43.2652L30.952 34.9034C30.952 34.9034 29.9947 17.6717 46.8657 17.0197C46.5408 17.0073 46.21 17 45.872 17C27.968 17 28.9617 34.9034 28.9617 34.9034L22 42.8616L23.7601 43.2652Z" fill="white"/>
</g>
</svg>
